<mxfile host="app.diagrams.net" modified="2022-01-08T14:00:41.024Z" agent="5.0 (Windows NT 10.0; Win64; x64) AppleWebKit/537.36 (KHTML, like Gecko) Chrome/96.0.4664.110 Safari/537.36" etag="SWp7ua6S09mhxZjSLTkR" version="16.2.4" type="github">
  <diagram id="YEqeO_MLkWLwL8V0Kus_" name="Page-1">
    <mxGraphModel dx="1884" dy="1284" grid="1" gridSize="10" guides="1" tooltips="1" connect="1" arrows="1" fold="1" page="1" pageScale="1" pageWidth="827" pageHeight="1169" math="0" shadow="0">
      <root>
        <mxCell id="0" />
        <mxCell id="1" parent="0" />
        <mxCell id="lP7gqWI9JIaagOP97WaU-140" value="" style="rounded=0;whiteSpace=wrap;html=1;shadow=0;dashed=1;strokeWidth=9;fillColor=#e3c800;opacity=10;strokeColor=none;rotation=0;direction=east;fontColor=#ffffff;" parent="1" vertex="1">
          <mxGeometry x="640" y="343.5" width="1120.14" height="495.21" as="geometry" />
        </mxCell>
        <mxCell id="lP7gqWI9JIaagOP97WaU-143" value="" style="endArrow=none;html=1;entryX=0;entryY=0.5;entryDx=0;entryDy=0;" parent="1" source="9eV0g2RjngN2opoSOIV_-4" target="9eV0g2RjngN2opoSOIV_-6" edge="1">
          <mxGeometry width="50" height="50" relative="1" as="geometry">
            <mxPoint x="790" y="518" as="sourcePoint" />
            <mxPoint x="820" y="518" as="targetPoint" />
          </mxGeometry>
        </mxCell>
        <mxCell id="lP7gqWI9JIaagOP97WaU-145" value="" style="rounded=0;whiteSpace=wrap;html=1;shadow=0;dashed=1;strokeWidth=9;fillColor=#000000;opacity=10;strokeColor=none;rotation=0;" parent="1" vertex="1">
          <mxGeometry x="1786.79" y="290" width="122" height="550" as="geometry" />
        </mxCell>
        <mxCell id="lP7gqWI9JIaagOP97WaU-146" value="" style="rounded=1;whiteSpace=wrap;html=1;shadow=0;strokeWidth=9;fillColor=#FF3333;opacity=10;strokeColor=none;direction=east;rotation=-90;" parent="1" vertex="1">
          <mxGeometry x="659" y="465.2" width="173.98" height="100" as="geometry" />
        </mxCell>
        <mxCell id="lP7gqWI9JIaagOP97WaU-151" value="Tensor Addition" style="text;html=1;strokeColor=none;fillColor=none;align=center;verticalAlign=middle;whiteSpace=wrap;rounded=0;shadow=0;fontStyle=1;rotation=0;fontSize=22;" parent="1" vertex="1">
          <mxGeometry x="1830.0500000000002" y="310" width="40" height="20" as="geometry" />
        </mxCell>
        <mxCell id="lP7gqWI9JIaagOP97WaU-152" value="Input Range-Doppler" style="text;html=1;strokeColor=none;fillColor=none;align=center;verticalAlign=middle;whiteSpace=wrap;rounded=0;shadow=0;rotation=0;fontSize=25;" parent="1" vertex="1">
          <mxGeometry x="230" y="419.36" width="237" height="20" as="geometry" />
        </mxCell>
        <mxCell id="lP7gqWI9JIaagOP97WaU-156" value="" style="rounded=1;whiteSpace=wrap;html=1;shadow=0;strokeWidth=9;fillColor=#FF3333;opacity=10;strokeColor=none;direction=east;rotation=-90;" parent="1" vertex="1">
          <mxGeometry x="900" y="462.49" width="170.98" height="100" as="geometry" />
        </mxCell>
        <mxCell id="lP7gqWI9JIaagOP97WaU-157" value="" style="rounded=1;whiteSpace=wrap;html=1;shadow=0;strokeWidth=9;fillColor=#FF3333;opacity=10;strokeColor=none;direction=east;rotation=-90;" parent="1" vertex="1">
          <mxGeometry x="1268.24" y="462.94" width="169.48" height="100" as="geometry" />
        </mxCell>
        <mxCell id="lP7gqWI9JIaagOP97WaU-158" style="edgeStyle=orthogonalEdgeStyle;rounded=0;orthogonalLoop=1;jettySize=auto;html=1;exitX=0.5;exitY=1;exitDx=0;exitDy=0;" parent="1" edge="1">
          <mxGeometry relative="1" as="geometry">
            <mxPoint x="1374.79" y="594" as="sourcePoint" />
            <mxPoint x="1374.79" y="594" as="targetPoint" />
          </mxGeometry>
        </mxCell>
        <mxCell id="lP7gqWI9JIaagOP97WaU-159" style="edgeStyle=orthogonalEdgeStyle;rounded=0;orthogonalLoop=1;jettySize=auto;html=1;exitX=0.5;exitY=1;exitDx=0;exitDy=0;" parent="1" edge="1">
          <mxGeometry relative="1" as="geometry">
            <mxPoint x="1392.79" y="594" as="sourcePoint" />
            <mxPoint x="1392.79" y="594" as="targetPoint" />
          </mxGeometry>
        </mxCell>
        <mxCell id="lP7gqWI9JIaagOP97WaU-164" value="" style="rounded=1;whiteSpace=wrap;html=1;shadow=0;strokeWidth=9;fillColor=#FF3333;opacity=10;strokeColor=none;direction=east;rotation=-90;" parent="1" vertex="1">
          <mxGeometry x="1598.33" y="456.53" width="169.99" height="112.92" as="geometry" />
        </mxCell>
        <mxCell id="lP7gqWI9JIaagOP97WaU-169" value="" style="endArrow=classic;html=1;entryX=0;entryY=0.5;entryDx=0;entryDy=0;" parent="1" target="9eV0g2RjngN2opoSOIV_-4" edge="1">
          <mxGeometry width="50" height="50" relative="1" as="geometry">
            <mxPoint x="600" y="515.0799999999999" as="sourcePoint" />
            <mxPoint x="700.79" y="515.5" as="targetPoint" />
          </mxGeometry>
        </mxCell>
        <mxCell id="lP7gqWI9JIaagOP97WaU-170" value="" style="group;direction=east;rotation=-90;" parent="1" vertex="1" connectable="0">
          <mxGeometry x="653.49" y="518.5" width="185" height="49" as="geometry" />
        </mxCell>
        <mxCell id="lP7gqWI9JIaagOP97WaU-173" value="5120x32" style="text;html=1;strokeColor=none;fillColor=none;align=center;verticalAlign=middle;whiteSpace=wrap;rounded=0;shadow=0;rotation=0;fontSize=16;direction=east;" parent="lP7gqWI9JIaagOP97WaU-170" vertex="1">
          <mxGeometry x="73" y="46" width="40" height="20" as="geometry" />
        </mxCell>
        <mxCell id="9eV0g2RjngN2opoSOIV_-4" value="" style="whiteSpace=wrap;html=1;aspect=fixed;fillColor=#d5e8d4;strokeColor=#82b366;" parent="lP7gqWI9JIaagOP97WaU-170" vertex="1">
          <mxGeometry x="61.5" y="-34.3" width="63" height="63" as="geometry" />
        </mxCell>
        <mxCell id="lP7gqWI9JIaagOP97WaU-175" value="" style="group;direction=east;rotation=0;" parent="1" vertex="1" connectable="0">
          <mxGeometry x="992.29" y="448.71000000000004" width="120.47" height="142" as="geometry" />
        </mxCell>
        <mxCell id="lP7gqWI9JIaagOP97WaU-178" value="163840" style="text;html=1;strokeColor=none;fillColor=none;align=center;verticalAlign=middle;whiteSpace=wrap;rounded=0;shadow=0;rotation=0;fontSize=16;direction=east;" parent="lP7gqWI9JIaagOP97WaU-175" vertex="1">
          <mxGeometry x="-28.5" y="122.79" width="40" height="20" as="geometry" />
        </mxCell>
        <mxCell id="9eV0g2RjngN2opoSOIV_-8" value="" style="rounded=0;whiteSpace=wrap;html=1;fillColor=#d5e8d4;strokeColor=#82b366;" parent="lP7gqWI9JIaagOP97WaU-175" vertex="1">
          <mxGeometry x="-13.5" y="-11.21" width="10" height="130" as="geometry" />
        </mxCell>
        <mxCell id="lP7gqWI9JIaagOP97WaU-180" style="edgeStyle=orthogonalEdgeStyle;rounded=0;orthogonalLoop=1;jettySize=auto;html=1;exitX=0.5;exitY=1;exitDx=0;exitDy=0;" parent="1" edge="1">
          <mxGeometry relative="1" as="geometry">
            <mxPoint x="1567.7900000000009" y="504.49999999999955" as="sourcePoint" />
            <mxPoint x="1567.7900000000009" y="504.49999999999955" as="targetPoint" />
          </mxGeometry>
        </mxCell>
        <mxCell id="lP7gqWI9JIaagOP97WaU-181" style="edgeStyle=orthogonalEdgeStyle;rounded=0;orthogonalLoop=1;jettySize=auto;html=1;exitX=0.5;exitY=1;exitDx=0;exitDy=0;" parent="1" edge="1">
          <mxGeometry relative="1" as="geometry">
            <mxPoint x="1585.789999999999" y="504.49999999999955" as="sourcePoint" />
            <mxPoint x="1585.789999999999" y="504.49999999999955" as="targetPoint" />
          </mxGeometry>
        </mxCell>
        <mxCell id="lP7gqWI9JIaagOP97WaU-186" value="" style="shape=cube;whiteSpace=wrap;html=1;boundedLbl=1;backgroundOutline=1;darkOpacity=0.05;darkOpacity2=0.1;fillColor=#dae8fc;strokeColor=#6c8ebf;shadow=0;flipH=1;rotation=0;direction=east;" parent="1" vertex="1">
          <mxGeometry x="1660.0900000000001" y="447.5" width="71" height="120" as="geometry" />
        </mxCell>
        <mxCell id="lP7gqWI9JIaagOP97WaU-187" value="256" style="text;html=1;strokeColor=none;fillColor=none;align=center;verticalAlign=middle;whiteSpace=wrap;rounded=0;shadow=0;rotation=0;fontSize=16;direction=east;" parent="1" vertex="1">
          <mxGeometry x="1638.0900000000001" y="439.5" width="40" height="20" as="geometry" />
        </mxCell>
        <mxCell id="lP7gqWI9JIaagOP97WaU-188" value="64" style="text;html=1;strokeColor=none;fillColor=none;align=center;verticalAlign=middle;whiteSpace=wrap;rounded=0;shadow=0;rotation=0;fontSize=16;direction=east;" parent="1" vertex="1">
          <mxGeometry x="1663.0900000000001" y="571.5" width="40" height="20" as="geometry" />
        </mxCell>
        <mxCell id="lP7gqWI9JIaagOP97WaU-189" value="256" style="text;html=1;strokeColor=none;fillColor=none;align=center;verticalAlign=middle;whiteSpace=wrap;rounded=0;shadow=0;rotation=0;fontSize=16;direction=east;" parent="1" vertex="1">
          <mxGeometry x="1623.0900000000001" y="509.5" width="40" height="20" as="geometry" />
        </mxCell>
        <mxCell id="lP7gqWI9JIaagOP97WaU-193" value="" style="endArrow=none;html=1;" parent="1" edge="1">
          <mxGeometry width="50" height="50" relative="1" as="geometry">
            <mxPoint x="468.78999999999996" y="516" as="sourcePoint" />
            <mxPoint x="520" y="516.0799999999999" as="targetPoint" />
          </mxGeometry>
        </mxCell>
        <mxCell id="lP7gqWI9JIaagOP97WaU-195" value="" style="endArrow=classic;html=1;entryX=-0.004;entryY=0.379;entryDx=0;entryDy=0;entryPerimeter=0;" parent="1" target="lP7gqWI9JIaagOP97WaU-211" edge="1">
          <mxGeometry width="50" height="50" relative="1" as="geometry">
            <mxPoint x="1740" y="506.71000000000004" as="sourcePoint" />
            <mxPoint x="1850.0500000000002" y="568.5" as="targetPoint" />
            <Array as="points">
              <mxPoint x="1849.79" y="507" />
            </Array>
          </mxGeometry>
        </mxCell>
        <mxCell id="lP7gqWI9JIaagOP97WaU-211" value="" style="rounded=0;whiteSpace=wrap;html=1;shadow=0;dashed=1;strokeWidth=9;fillColor=#000000;opacity=10;strokeColor=none;rotation=0;" parent="1" vertex="1">
          <mxGeometry x="1919.2600000000002" y="292.25" width="1060.74" height="566.46" as="geometry" />
        </mxCell>
        <mxCell id="lP7gqWI9JIaagOP97WaU-212" value="" style="group" parent="1" vertex="1" connectable="0">
          <mxGeometry x="2180" y="521.25" width="106" height="100" as="geometry" />
        </mxCell>
        <mxCell id="lP7gqWI9JIaagOP97WaU-213" value="" style="verticalLabelPosition=bottom;verticalAlign=top;html=1;shape=mxgraph.basic.layered_rect;dx=10;outlineConnect=0;shadow=0;flipH=1;flipV=1;fillColor=#dae8fc;strokeColor=#6c8ebf;" parent="lP7gqWI9JIaagOP97WaU-212" vertex="1">
          <mxGeometry x="11.5" y="2" width="68.99999999999997" height="58.752" as="geometry" />
        </mxCell>
        <mxCell id="lP7gqWI9JIaagOP97WaU-214" value="3x3x64x32" style="text;html=1;strokeColor=none;fillColor=none;align=center;verticalAlign=middle;whiteSpace=wrap;rounded=0;shadow=0;fontSize=21;" parent="lP7gqWI9JIaagOP97WaU-212" vertex="1">
          <mxGeometry y="60.752" width="92" height="39.168" as="geometry" />
        </mxCell>
        <mxCell id="lP7gqWI9JIaagOP97WaU-215" value="" style="shape=image;verticalLabelPosition=bottom;labelBackgroundColor=#ffffff;verticalAlign=top;aspect=fixed;imageAspect=0;image=data:image/png,iVBORw0KGgoAAAANSUhEUgAAANkAAADZCAYAAACtvpV2AAAABHNCSVQICAgIfAhkiAAAAAFzUkdCAK7OHOkAAAAEZ0FNQQAAsY8L/GEFAAAACXBIWXMAAA7EAAAOxAGVKw4bAAAAOHRFWHRTb2Z0d2FyZQBtYXRwbG90bGliIHZlcnNpb24zLjIuMSwgaHR0cDovL21hdHBsb3RsaWIub3JnL6PyOtoAAKdiSURBVHhehN1bs6ZXVfbxJi3uEZWgbLLtJAQqwrGnln4GP08+n1UcoAcUVISQLSiIoqDs3/WbWf/Hq28WvlfVyJxz7MeYc973s57V3fnY3//93//6mWeeefSxj33s0a9+9atHv/71rx/9+Mc/fvSTn/zk0X/+538++qM/+qNHn/zkJx/97u/+7iP4xS9+8ejnP//50f/4xz9+ePD48eNj+8tf/vKMfP7e7/3e0WPzs5/97MYXB7+YzeEqWxuwDukhOiB+c/mxK6d0f+d3fuc2T59cnubIHOJtXvpD/0//9E9PjB/84AdnrU/09E69v//7v396oDfW//qv//rohz/84aMnT56cHrIl43NhTd/4ox/96OzDX/zFXxx99sUtT3N1ZMsnyEWtxeLn3//93x/9wR/8waNPfOITh0cW1MAWn5//+q//Out6T/db3/rWo89+9rPnPOCrEeRCVx5ikmUX8MVQG19s2eBtz82RHICffOMhc/z2kr51cj4B3xzvimKsLirO5paOvK2ru5zts1zYNPJB9/FXvvKVNzlAu1EUbcYf/uEf3oKgApPh//SnPz2Him0H43/+539ujaEjsTaMPKSTbzDiG1cX0pEbv8mbk5vzWS18AX725GBdHDk6XCB/F4mPYuV7/SH1f/e7372t1fnf//3fx6fGAx/sHUz053/+50dWjsb8skP8yuOP//iPz2hT2ZJ58LEvd/7lbsMRXrmi6lCTS4bHHz7d7QewVYO47KC9+7d/+7dzya3lKK45G7H5rFf0xSof/D0LaijH5EC/3PgkoxPWJ9SHkJ+H8oBiZVd882zzDctLt34gdRjxQjryf/xXf/VXb9YYo4sCbSpllMOC9BT0pNV4m2LdG9CcPZ90/uVf/uVczPyU+M6hdQmbi2lcWzlA65poHqxD/vCqx5gv9nTU7xB4OzlkcsZXD+S/y8dOver2QHKI+XCR6JD3ZrMZn/rUp26bwmeXA7Ymdvh/8id/cvQjbyA5mdsjNnqMHHrAY4vqAZ46UHM20D7RV595F7KHrDyLYy42H2oUo3qM6u3ytTdgzi8dcn7xrOmuHllzcjIjpEsnvWT0ofXGaETqMCZHGxPStXfFivBX57et5fpMwYAxJqcOmE0zB0UhCRjZ2ZQOm0P5/e9//2bbpeOjA2quyUb2kL8I5FOMYF3ycjTWmJoC6yeQl0MNykf5O7R05G9Um4MA9UA+p2l3+sH8M5/5zHm606PDJ38gF3wPIj7x+ehNsb7kyR7PwXfBgF4Xhj/2iL5Rvu0XwqeLoJ5Y84ms+UTVjccWuSj2Si745HjeonjXPSxvtQO/cuK7GumZu7j1XU7FXIgZyssY1QsE4se/6iL5GMnShY0bLz3j8tjhX23yF2WrduPjL33pS+fjYgaS9CSvMX4GwHPg6HGo4TZX0+lZa7q1nx08bdmQOVT8Ah2HywFivw2x5hsPzNnHK5/sgC3Ci0CufNpIcvpIo6uDrjzKRQ30q8PPV+rAY5dfa/r5sPZmMfZgkStdPuXvTc6nw83unXfeOf4cWHnmnwyql38+PbzE4Isfaz/febDZKzzx2fAndrXxWe/ESU+MdNhE6Rr5cSH4EPuDDz44MnmX60K+YM/Zq7++onpDXs3Z4OezuRzjmQdz1NmA5hEY+VJXNVgjwKeztaz++kuP3LwRNg9IF+g9fuONN9604LhR4RQ1SGM1SGPBIQQNs8l+HnGIHCAfIfo4o4me3jaqi+ZAeDr2g7tE2vRtOn4Fta4oBQFeeaJrY/IRjx2Sy9oYfdwj68DJzc9CG4usHKzJxNcjvci3+s316e233771jU99we9ymHva81MtfJvzqVcgJ/HJ8dh6+JnLXe/0n1w8+8DGBe1iyQmvvOkieRnBSAfx4YK1L/IRi391skPqry/AN76xmMVSG91qBLkBvUAO6aL8w/Kaxwdx8wvFL5dskDzUyCa9/LQGcvzNCbY+tL0A8/Mmq8BGCWagYZqasacmCCJwT35yT38b6zBZ/8d//MfRtVkOCRv+6BUDiVvSHQC8GsBXTaioNokcjw7UALT+6SP8fp4wd3h64sqRPweJjRzzqweBrcuhFnr7BuNT3Wqm05ccYhr5xxdP71wUNmKKZ84/vd5S8moP2KlJvOoz13MXrZzl5W3n5yq++c0/uX6WfzGzE5tfaMT3AFGXXMqRDR1rBOUlHp65mumCnHpolQuUXzBXGx/m/DTSlRMkByNZ8+vIVt3N+bAH7f/6LTd69mrPAOCj6gJ+UTyxHn/xi188bzLIKEWBBVFEATpQkumASMqBcHmArM0wWguGrIsT1WxoxGfHvzHdNk1eZPFh/YC8yNZnDV5Sh4tBz0FSN5DVcDl0GGwG4O1IX35svAk//elP3y4HG4fdnP6zzz579MRl1zd25EgsF5OdvPMD1vL0JYrxz/7sz87bsf6ztUfABr/c1A9i4/FF35ocjGTlCtkDGxeMTfkGevh6CsmLY+6BYI0c3nTYgjESkx4Y5dM6v+VhXo54xeOHzNk114NkyLo4qIdHSA+ls5T/az/K//YzWYohnsuDX2M4yJlEHUhJeVL95V/+5XGK51BoiHUj+0Ywop6ciG86FQTyuIJOugjKWbz1ifjDy44eXnXIt6/L0ebO3kaws2Zj7SCz5dcFMi/X7BEeHfrmLpR45h46SGwXKt163AHA97EcXxxjtZHrefEccB8n6YkF5U8e8BDfwVzubI3ZyAWMxXRBjOUR2Lr0ZOYgDh0+kTjW8i6GdfzlQfyVN08HD6zFJecDyNr/enG1N6ovGyMduulkUz/AGr/e5OM2d8lSLDCsc5u/m5GeZvmIQuag+GiULmggvWwrvFglYW4kMwIZpEcWfts6nrHNhWLgV3z+yZC3Rodrc+hQ4LkY5UqWrz7SkAFf5siF5ZOeMV0/rzqketNHRb3LR7XoYbnSd1BcyHh8yYes+vgwgpjmXVxxwJqP4uTPGvFZnY3lZi7vbGDn+dQHF158+vwAOf38QDFWxi5f8ZsH84gPOdJrH9cvWXmj5NmLV4xsmoP1zhvT5SvEO2cnZTBHEgRBHawaUQHx+jnDx5X+FECO81MRbRCfV8TbTVx76x1RugFPXPzs+E0/8Ls10O9nSHM8dbA10jUCPXZGDxX6yKHviexSuUh6w5d4fq7ip7eWjy3f+973zkEP5HwE8dWDj9Rk1Gv58F+ecucXr72z9hbbj2YgRzmhLp65EczrHQrx+TEWsx5ZQ7LeoD4Oq0ssvYF+5ID8GqH55nvFxgpsqkUP6kN+6Mo1m/WPV6/Zl8viymttzK51BMd/wYyrXDJtbpvZ5nfwOLFG5Pnjp0PAx0P+UE0kR+zw0Oa0Y/ZG6KkMa+fQ+XmkPKAaIj7Z2/TyT9YlIXdQHA58/tTBxsHxkVosuuRkDqC5Qx7Kiy86cutnMQTVLrY3XB8joUNNTj9/8hbfHrBD5nTMjXLDAzb47LZfiA6e/NK1voK8PefbWpx6jQ/lRYcfbzY+u2RAhmdsDnxah/J4KB82xYStNVm9yD+Y85fPcqj+4jfScx52bc5vNlAM4+3jIlDGNKKSxkOtjck5X16bR99Tv41AbUT6EiweWKdnjA8OpvXqKxb43MNhtJYLguIZ8ejZ6J6y5l00/hC+tY9iDrynskPkYrlwDozR2humeovJN1j3lpEDvsvngpUDO7XRNYqDrMnlwYe8+Anm9IHvbOuHGpqv//TBGrXWX/EQ+/ZMLDx1gjc0OX1+yT0UjOpi58EgfiQGnnjs2kvr4uAlF6+45RnIqwua85Nvdvi7Nob4dNht3OZGtLYrNwdzNQZrPp/6mWwdpgCKtF55iVdYMihourBJZbPAA/JGVGHGnUNrvth3GCvUaO0guAguCz18dubI3KHwwzpfDik7pHa/H0L6wdabC4nXt3vAltyB88UDuZgOlQvShTI6jC4uOV99fGUvDn158IPvUsqVzFh+Ab/45vSN4gFdsurFzxc7MejgBX3D76Kxi2/uofPhhx/e3rD1lNwDyJrv/CI1G/EDOd38IqCzFHZOt9zim28t+NVdrPTXpr62lk86V5v0xcg3AvL8GM/PZBmtgbkDRtbGpQfWx8EdlVyO82mdjREFsnywB2ugn9xcHuWSHJUTkFvHQ3gul59/+rbNGsjpOtxG8GbxRY41/y5DB8w3ew6Sw8mPnD/3uc/dcsE3ujAOWBcI8M3poN5q3oL5l48+W4sjLzZ+p4TnUorJt7wC28iFEKvL1EUSCx/MsxcTv5EMWeu/HOpTIz7wQVduYhnBn0bxS3j6oAa+2cmLnfnmwB6veciHsTzjWZdXNnjmxvIxD+UO+UpOxh8Uo5zAyGd5kyH2ZObdE8DP/kTFqFHmrZtTbB5BOis3r2hj803OYYA2FfADH1eZAqBY1ubFQ/RqvLlDpiY8Nj7e+AVtOcmjXBxsbyV6DkY6LqVY/nzi5uhCZq+28nIJXAyjb1vLyYXiU06QL7xqA/Mumdz1wBqxkY94fUwVt4+RiA65Wj1YPBzqo/yqi129AbJ6mV5zenrC7/py8f2ujl1y0BM2IB/rcpeTS6g/wE8E9UUc/uKXS2vQy/qOzLM3yqF6oZr4pt/IbuX5sRfFS8+YHkpuDvlcvfPFR4rG1kigJbII2tQ2yjw7oyLNIbsOQ7EWG3Nl2SqabWt6Dh9eB96Bc0D7iAYOgy8Z5OMCaERxxKxBfFpDh5kPcY1ieUO5YNYOFhubzZeRjQPkkPPlzYjXE11eRnb8yYttNYB45HyIQ7985E7mknXIfDRkUz1AV738NkbVbs4OsUtmzkasDg2QiQdyl1t/2yDf+uP3peqkn3/+Im879UC+gW8+AD8CsiiQddDjNxc75AMv/voJ+d+612+1XG07P12qcmr+1Ff4oWRSzukmubL4yUoUTpA7frodJJvkMli3ubtZ1nTYWRcnHagI6/xY20DxHQLElh+H0gh81Uw2PuYlK1c6cuzPBZYLOCzkft/l57V8kztoqEtHXp50OqBq8fYEefBJTyxwMcnx/VUh5M0kroulZvriqBmvvI1yEIde+RcD6JnjJQ9kQG4uZ/mby9vIL76xw2fODznC478Y6vH2kxfgsQX6gBfx1VkqPyNZ/mFtm0M5o+puD1dWvGwb8a59KSbUn+b5yN85r6+//vr54iNHFQQdwJwk60DkiC09SZPhpYtvTpa+g2fEY8s/PRsG9CVnJKPDxnjNkx+wJpOXN8l3vvOdY+PyOID8e4LS80ea+M2GjJ2Nx+8QVZM5efoOf/X7soSeOV72Lie4FPLoUvHhzUrPgcuH0SUBcxfHFwveZt5aYiI8evzVP/W9//77J2YXTcx80enw8ycPczlc+6qG1nKlcwU+v+omp8vO2pxPfDqAbx+6qF3O9c2Ofn6yxW9tXBS7eXIxNkc66V3XQK+9lbs906Owca620JqP7Lb+p77C36IpWDNKGUpcIfHp4FUApGOtqXxprEQgP803doUgPhy4YuF1SMiKXazy8GUHnzYNOvQObJcM5JMtHXHokPNjXWx6wKdDjuTm20UXxxuLD7b8gdFHJz0APoqHx8amdvDAyK+/AeFikflY5osWb9XeYuWlBy4a/XLeftIVj0/84uCxxUP1annVkU+y7bmRTuP2qjXygLPOx4It0HPIrelkG20++cKnbwxk4ttbOuqng5evndNbH+w7C1FxYW2heXW1Lo/bHxDGFGgPXcCXLNgI8y6LArJJLzoB7n0lhxJoviNUMBsHYw8UsOWf3vp2eLL199ocTAfcAaRP19olK68abHRpHGox8Wy42G1SB4ytTejnM28kF5N9+oDfYWGDxJenJ7tYfUGB76LSl5e3sZz8zPbiiy+en3NcMHXIi89yMpL5Uzf2p54Y6dPFV5exS8ZWDDp49OqruTqyT8ae72Jnj0BMumCsv+qjs/1Jjx8y/VAb/3hAxxryXbzyzA8kJ6sPckiWr7Wh31puq0PGD5hfUU6onAHfGj3+whe+cPurLgQ5hAKTF9i8JoECEDlbm8AuPxUbb4ms2MaKLS6/9KBi01tdJD6eojocp8D7vG0yW5vo4LLpaUXPIeuCqcHFFI8dH3Khh5fvYrNzUVwyazbeNuW5ebHn2+USC/D6CGguvkvjT/GjLqW3njc0+/yxo88O1Fgv8OkhwDenK890rbNnV13p8IMPu9/Nydi3N2BNFk+uyLp42YF90Q/rLjwY018eP2C05ivdZOb1IhtjeZkjwKMPyzfmM97VNp1di9v6dKTG1DAbEQ/apJKgBzmBgrCzKRsQjzx7PNSmt4npQU9rG1OjymubWNxGZLNqJN8uE17xIF08BGyqzYH3MZA+6unPJx15uUx+nvJRKJk46fPrEvSGIqsul8hb0NuQvEsO7LyJ8X2U9HMYmbcl8MGfutjpCZ63n8tOTz/42X6yqd76Lef6Wf31FekffTm3B0BWr8z5qJ9GMG//8FbOD3/AHujqBz4ePWN5xoP1h58PoJ8tO3kai9cI6gN+gE11FQNvbfDC+kwX6umxjbGOKAu6gUuyJpVIII9aA1uFGCvWvETxipt9hZdTySNIH+Kny5/D5qt6T38Hmz9vgQ4xngNqU/kuJttqd8mgg+yQAh1Ep1rMHQ6jtUOeTB4uovjAn9+5eZu6RPmlC3zk2+V1wcjkqj4X27dz1t5o/mY6/2Kyc3nFYB/ky4dY8btw6kV09CCii1evjTtn0wWnz39+oEuU/+ozB3mUixG/GgM+u2whHjRmkx/rna+8/KD68innbNJrbbzO2WRrRPUU8NGJbsIpJQpGyFEH0BwyLknNaS1IDc4PlBg53XwjPCj+Ai8/fPaGaIOTm/e0NyJ8euDQ8O2Q0hV3/fKZr2CeL1RcPvpoSMdYXH5dYhfE4XfRvV36ZtObrT6x07vAt97VT7ZiIaCP2G6+LhsCPlwyfoBcfUFspB9s2ltEF8oNL1uyLhO5cXNpbsymNV3IxsifMVp+hJcdWpDDlW8tb9jcF9bZFYtNcdZ3vuSSHbLm37iy1al/55fRZ3JPkLKmIptdg0tm9QJ7cj4XbbjDUxL0zNkYsykPurt5iB9kXvFBfg46kNFzODu4yMc/5IL0hqPbJZJXsfPjIBpdEr+nMvcGyodR3A4tnp+35O3t1iXxJYw1XW9abzZ/+sRHRvWILVex+Yzw5KZH5uLLUTz7oi5vL8QPmXH7WZ3VV12onmUX8sWPsR6ieHKKQn7qYXkAmRzwyI0on0sbf9dQHeVrHXaeLf/LZyu+vPlA9MLyUPE2vh4GumLwV5/zh3f+SbhNwNqmlEhjHx9yENVkFOgd53e25mDtAC6KSyc9PEmD8epXHnhk2UB2yRxoc7Ug6LD1BEd02BprTHkjc4fb1+eBvY9pDjm7Pvapz9jPUGz55Mdl8hHRvD91ws+77757+7tl5Sef5EY++K5/YpK5qPtRUTwysGd4wEd+qre68Kq/HmbTnExu5I1IrcbApviQvB5AuaBkxuLzD+Uqh3jFljtknw9ovTnLA9IBcn7KI1QzlFM+soFiouoJ4tKFY2NCkTFDQba5BQI6buw6JOe0m5yfbIEcrwTji4NfXKNi8p9f/FAu9PaQGH0UQ76R8/V5P5s48Hz2xmEH+XIgvTV68wF/5v0g7osIX6Nbd8CNkA3IV2y+XML+BjT/RvHN1dtFkAc7BOoGcnC52NDDQ3jqYeMC11t5t+lI/Ub8+m6O2NQjc77ogrx2n0D+9XKRrbGc5WptzD8YxY5v5H9pcy13SBayb0xmTVesq07z1ulDecW3jqrZmH0+2i/AExvy81Hld8g5J8Zubk4rANZJTStQgcFI14jIYH1BOuQ2a/WN0GgTO4xyc0iQg05fPvlTg7zY+N2YC1JsvOZ0+XRpzPH584by9kmX/77E8JHP2rd/PvaJxYcvJXwk5Wf/iQEXzhvLR0kXpm8WXUj6157yDdXKvxyS80HGt1zZk+sF0MOjU0+W2reNp5/ZAD45okvm4QHm1x7yYWS//OKQs7NG9KzFDfTSgbU1glFuIV2gtzI5WvNZPUaUnblc2MajZ966mpafX1ADIucHbnqYIeGO5Iz75WjAX4INCvnBoyNgyaCSMN+YJ7H7RoARD/ihg9c823JxseKxcwgdSvPyoxf46qOeS8GWXm82F8tFckG8PZB5ZN1DRi190cGvuC6SeC5x+bh0ZL0N2eWDjnzKVz5kdKB4HVIjfXsk/2zrm7G6ob7Vr0V5tCfmfEAHDdZHIM8nopu+HIBf87XjJ1/yzPaaf76A/o7Ad1QO9jQZ5JOdOSo2NIbW+mBeDtngh3JcXyd/yhkIGPAoMEQdBk5zzIbezpcXKoyfYlgrvOSRhhjBWMJbCJ0aJ06ULwds+WJ6mnVAtrHZWfPpo2Z84M+bik+XyRqVg8Pe5vniQQxyB50vbxUXVQ69vbxR6ciFT7F6I9QbcnWXp3lrudgLtsA3lDNc/dUDPuS7Phf0I6g2+u1F9nIM1uka6W18a/ONZ55dute8mss/HWQedg7FxEfss8svvr2qrmyM7U0yyA/aOu2FM+CM2BM2V5z4u0lRKEEHBEkMCg7k1sicfY22Lim26RrJ6TqsdBSHD0Z50cFHijDiISh3KGYj3+WJx778yeiQG/ntYycZvy4JuTcS25ooX2M+vaW8mYzyFoOtj4L8+MhIz8UDuj5ull81l09xgcxlYmsju+h0+axHNtto3QOlHNMxr95gnp4RiZkOW2vy4kJjewpGOukjELM6UbXlOx9oUQx+zBH/9S0/yfKF+AY6ZGzw4pcHXfLF2kN9QfnS++Ii+8OmnNKH05OaAQxKDChac9Bn8ZIjK1nIpmIKmq44kite9uTpGfH4Iu9AA381GYz02CF+ER125WOeH7xyKMfyA82i6+lE19oBBgfchWHrZzU/R/n5i62f2/y85QIBuQurFn3rAeUC4IvRz3vW+3HTWI/AnD0dPuSE1CE3HzuNLieST/uC6kf1Q2O6QBfoo/aBLcjDXKzsjOXNvp7iIzb53RwaQ3k2T87eSJZPlK7e6QmwqxY21sgcPx/2IL8Ib21Ajeqgx06/ybMzsjPnz1kwZi9e8fk5WWFKFiMBByUNNjqZADkKHVZ2YC4ZOuY1xjw9I39AjofYNIoTiRGvzQYH0DqbSHOM+HKhB+biqqknv7WfaRxePPn42QrFMyIXztfw1cHWmwzYuWxy9Ad2XaZi4InBxtvMpfV1v4tSzmTQ2w7U5pA6VGL7+ZCe/PGArbj1yEiHD3Ehf9Z05N28A5Q8m/UJ1cFXvumQq9M6neW1Ds35EJtc/M4MKr9GfquLXmeq/lafeXtgBP6smwM/8Yzs+WykR8ecz+z0PbvNKQK6/Jy4CgBCzFW6QjDyGrHAy1dNgZ6EEsGvEUCnxMyzBzzNwyth8flzecQzOnQdQj4QWU+jnqB8FL+1DfD0p+/yAHs2DrIvPPgHh95lYCNun8PZg4+Hmq9OPsSnT7cvTfhwqcQn58ucnbmc1F0u8mVvLcc+erq4fk3hF9zmYWut3vqR70Ygq78oyE2v2XXY9rAidq3p8cnOmA2QAT4SM6LTPFn7Y32VI/3Vc2PnkXwhplygPORPT48AX5yQr3oG/Jj3IOsM45WbNT/1w0hWvvw+fuWVV27/THcwz0n8kkoWn9MCFRxtc+NF8aANYhsBeQk/FNccKeKap3mHvQaYa3B25S1+l9VbRkN7+ro4NodOtg63j4A22pcdYpVffroMfp6rN/Lhx5pM3silE8OXIvtENndJyV1oRCY23fJCkO/W9cG6ebWD+pbPd7FXr3Vz+sCePuAhcnx5gHX5QDGR+XXvmq8OH/R8CunjIRm+PvZWKT55+eQL8ocgGygeW7HyFR+lV23GfOQzPbz0TswzG6ziQtDFBifbhM0jMGq2AtIVvA0wx4/opXulfIZysAGnoPuC2eefTbZGOuXfwUSa7PLg1SSb6MD7OOgX0l08bxD2ZPyWc3UGPvlwSY3AxsdNBwffYTGinsBGl76PuOLJwR8u5odfscSWa7XJqXqgsT6pvfrkYcTbwxrMER9yWx4US73m7OuzuRyL2zw+O+t8ZZc+bO71WV96SNlzMnr5ywaskZhQjPyULxsj3jXPzkG2jdAY2JFfcaJzWCKBASwfryRDjmuc4tsQsvxkw1+8bKGDwh4vqmnlYeyQtF5is/k1N24smyZnIMPrz//Jq1yM1g6hC4gXv3jW5UmPH5fRD8RsXMo+9nWxfOnhreTysCHn08iXNyJd+fja//nnnz+XHPjpCw9y+kYo9/pnTm4uX3rpQntAB9EHI9lDyKYHAzvgn8wI5qg+Qz2Lny8jNOJVB579yj++vupbsdOtDjXibV/yWYyVQ/PiBOtq2nibD368xbG9n9+cXg0lFsyTLyooIr/qWJfAjs2LxVdPWDZ4NRiMNauL4hA3J2fXxhY332AO1Viu+ObFZscP8hYRA6x78oMnKpt48qHTQTB3oTY+HXDJ+rrfZXVx5OSy0fHRkB88Hxn9Wx7egnSLX46bH1l7AcVuj7YHdPfBkQ5b1BrJI8Rjg8QFvvHZyqm9pQNieVD0VqrvbMrL2lzeiGxBDnxuTgGfXX7SaS0vOtbG5uVgbY7MIR/luH7BGmUH5OdPfCSAHLQplNYwSo+8NZIoCvGCdT43wfz2VqhBFUi/OB2idBb45PTA2Jx9dXkC22QohhGVC135GDen4neo8MiQzUN4bHurt6kuG+J/fSEXS059RHS55G5N5u0lD77Ybe38sUXixuN39UL2iD/oYcVme5YesKOTzeaP9IAf4z6IQF7tL355ZgfiWBcz8iCD9qU3/vLyo2+t23+6SMxqs9av1sZyMi/2ysUC/B2L13r1bt8uLlIAhiWPyI7hHS9ssYt0yduYPRzkPgqRL18xqEvgoG6BG4fP1uvHuIWbx6df3dniI3HIHJDsO1DW5usL6Aa8elZccCiqA7aG/BnT70BCsfj0Ri0uXTw++V775uVi3iVib10u1UyvLxegPhm3FrH0mj5/xuqjR8amGsy3L+XQ2xyPbSivcmzkm26on3jlA84N3XLu08SC/tVfNvGqA8TZ/i3oIDpXG7j9fbKSLUAK5HBdc8QhfiS4kY8C5b/g8Wu6b+IkTx7aWESnmEY8I3s2XURx8W2qRtDrUEA2+MWuYeVntF4UvxwjoNtB6bDRTW6NIL/VFH/7hVobUXbqysYoTqM6s+ED5EBmLTfrjYHYRdnoJ53lW29NgCenLjd+9tbk9taXN/IonpGunAJeuQI53fZRDH7piZH+2piH4tD1cdRYPLIeJGzFQvRbm8eHnZOhHh6oXIDf5jf7kgSGHJQ8pRyBsWRgnefQOh8I37i+wVpCisbLd/I2FV+Ti0k/5J8unTYA0SsGHTw+8OiZs9d8OjUHH684LhHZ+jWCj33VnY0RFVNewHe2qI3nW0w8o486cM27eX2B1kYQo3zpo/z3cas8kDl7epA/xMZIByVHbPmtZjWuXj9vAfmO0B7Ql+/aBvHpsStmeSHrHnBQDfW/GOD3ky474KN9OKNgzr+xvJLHR+onq8945Qfm2Z03WYsKTRE/XuMCj24FwlWvjSipfIO1GIo2z086NTZ++uTlDOQbt+ZuXmDdoUMaXbPxQUwE6UJx+S6WsUuUDX/ll149ADnswbImY2O+OaeTv/IP1uTlvHNgUx56nD4Ca3yovnyQufByNc8ndJjy9ZBf6MDLGS8+sC9nSK/6yJH8sgcju+L38Iifv51DZ4JdczUXj345ZkcP0QP84sirHOohfv0GI52n/uxizJ0XIAiyiULrbNswugVFFaEwTU1fcgs29NgA/eYbw4EuFuJn5fnYmPHka462OenjtQHAb36M9F0w8w6iER8BHjt65Zh/BzhfcsEvnjz5wLeB6y/ID7GD+pmvbNKLX05Ah0x+5ogMj152zaP1sSgX0Itrv9myyx4PrKH6yeSSvJyKbaRbvPiQ32pBfibbB1t6QA9aX+UhX9UT2K9NBF3Ek1lM2EQgpxnXqPSyrQmhtYLTN7YGvJplvNrTFV8hNSOd3kB8keGb82NdnG3uHiYw3hpxv3kOBh8Ibw+KkV+wlgObck9nLwZeOeeHj2KUf+CztyNZ8nKMXFIfV9eHuBsfiV2O4AsK+tAI5WksN3luvag80hXDuDwjPh/pyKm6QF/zd82nGukg/PyBeXXKT7x08kFmTgbmbKCagE35oiA3yKYa+Vlf5vwZQ/N0bv9/skWJLRigEql5OQJrATeBGkO/4koKr43Ykb25PDow1vjlRm8biNq4/JMbyycfrdtEKKa1Of/JNhaUD3hKmtMxd/BdbGS9Pwv5nRg96MLLD8jN2RQfr3z540tO5vJB9I1qJuMT1odYbOtFI1nAKwcXvbh8rx7Qwd9LE+Rhz4CdHOiHehrqZXrlZaxXQFa/qte6EYptrP/VwRc7uNZEv7jNN5eAhwAfiV2fYW3Sefzqq6+ef6a7RHdMaVHw5NbpGMm2cMCviYjMWEPMA97GrCE1yDwb89WF+HSM1kj8zctmb3Po4MlfrD0oQA580EF+iexA2tAOT/k71MbqDuTVJBfrcuIzlH9181Mcvs27bPkhy3f+jSAHOuVCZr78fBUb35ysvpCLszJEXy/IXD48wE/Onl17Afymgw/lVv7sFvWpfOhAdoGcrHyqoXgo29aARzff8Y3FwDeHh/Sq68R87bXX3rRAgKkBKUHGUKBs0oH08Ng3h+xAoSidRjr0yVoHOtZtDljj82uDzNk7hHjWxUHQobc2p9dhodtHMBuz9nSqhdwBrw90jHTyZXToqhnwUbmurAuUbA+Gj4bG3mTF80tqf/wqP/TN6UK5oGsf6Dnw8eikD3hiAV32zfOH5Fs+jWzpmYd80UlGzxqs5QObE5BFxdAL+uVGH7JLpiY5siEzFmf9BzrkfJJH6WQDvy1HRFZeH2V2h5xAySxqZsbN6ZVE82SgUEnjK7jCjXTyC+zx8tuBI7eGeNDGAZ/p8N2bJD/lnC9Er/zY92bo45J5bw3z/OxlYN9X1uY1vZqN+OLlI1tULnTrXTxysbNNHpUH/9sLemzwUHEa07E2qt0I1ViOxRYD4UExER0kV3If07IHo4dGsfkL+V+/5QJkKyeL175A+fSQDOzUF8TDi7JvXo1XG8CvXij39gDyC3JFv/HHqhrjFcyYo5CuYJEA9LKjgxy25NZ0elrT7TBC9ih7PPb0AvuQLRsx0ite+bEpnnk5IOBHI709EBuyNk5Tq7FNyS+fZHT5aAPZx3cw4i342RyykWt+zMmM1RGv2OyqXV5k7PHNg3lERkd+yINldeod/2C0FhvoVJuP0F2yvkEN4qBybh0vJKt+82oBaw+1HobVTa4vdPU/GSTLx0NjfeMLNQ/pBrmVd3XSySbZ+ftkJjUSUdL0NqcirHe+dvFRPAHxzWEbDitLP7/Al2ZVnKTZ0DHPH73m9G2yhsI2Rgz25VWT2CJPQX8g198Z8yVFbzG6xnxZl1sbY47Kja/i4BVbHHJr3/RVfzHI+awP2YOxPBywLjYf+bwSvlyN7MwRGMuNXwTZgRh05IHPRo54iE/Ulwx6QE9e2zN25MUuHnm+6x8d/PzUE3qQj3SM8kVdJDbFM8ajD8Zk6a0Mbbxk1QzZ4RUvfvrm52eynBS0INbBmvMcpZtONpCPkkm2xE5ydDWnRpKF5ulfGxX4wLdpRk9QG1Zu5GKJY/Txrtz5xHOp/FUSdv3vivD9tRUHqIvLVp6IvcNOT05s+O0tyFcHxyi3DkM1mHeQovrAH1hDcn9QuD8uBFuHMWJXf+mg4u7IpwcKebpgzh4aIRsx8IuRTw8PMjka+dM7enLcj+Dx2VpXa/HY6x3/xaNbbXzjs8U33x7iA1761Ue+vaGbf2tjNkaUXfEQ1I8Qn97jJ0+e3P5mNME2lgLDdRaPPpREdukt8l0zHExr/Bqi2Yv81Myahsohm/jgDeIP0bLxxYAYiH0jEhdsID7wa82Wf4fFGvjyt5T9EZ30HRR1s2PjIorNFr+fD5r3V1oQuNhqyF8HQX7PPffc+afBxU3H2OVSbzVBORvxyJOZsyEP1V3vyNOXX30yTyf/bOu9nLNzefRsH0TQHvNlrhf84amvXMpRjGqkX/34fJRr9WTDH5vyMadPRmd904kWZHSSmVd7FPi2ple+YG0ePfXtooKgdYaIYU7jQck0b8wGJIo6sBVRAzYOGMXRtOR02VinF69YNsPBd9j7O1eoPMjUWGPMy4GPfhYxJ0P+CYG+xesvSrIn40Nu7JC/iCm2y8RHT3L+yfH7F4n93TB8KEe58Av8ehvK2Z+74wePPJ9syr2a4tHDR8C3uNUG9LKvng68XpbPxomKBeUjv3h0Gpt3WejXRzDPH93qNNJpn435qkZyPOvsyxXSAfz060U21sVB6bNfbD9gY5mT5Qcf7/YzmYXNXmSUgaIhJ4EML74RT0J8AF4go1fM/J+E7vSKk+2ixjenf41B7oBrXE2tOXTMxXWA49F76aWXziVxqJGPivT8gzqe0A5D4JONGPIw7j9swzeb8utNhsT3T8hBBw/4jNjJpUumHnryEc9Y3vmwDnzA1my0Zi8nVA/px+c7eT7VJ5d0jdZAbyGG2umZ55ONOb68q4VOdunviOTfHlYb+91jYIPEIqcPdMzbs/00lTxZPSk+FJ9NMij2+oJ0zlhyKRjjUbjKGZYwNOKRabyxJKACFiUM2Rq3MfGQwhHIC4998vI2t8EOcwfDYWWD6Gkw3/TL1ZvGx0F/PSN/ffQh7yMQkPWk57ufwfzdOP/kQP/Ajo+O/lk4l8/PeWR8sKUjD+utjWwPAL46kLVcdgxyaawu82yLmw6ig8iQuXjso/ysTb3X2y5ettUB9IDvdOSMj/LNVyhOtkAP+GGP2KgrP8iZss7f2kH1hPqXfXN6V9145V8erZdnDvHOn/hgDDlCPTUEyhh/m2VuhNYKB4fWwXNQoeTD2oF4kE765Ohqi4pPVkPM+xLDBejAJqsuje8AypM9no+GDkq2fgbrskEbpoEOWD59DHzhhRfOG8sF4hfPxSLH70D2L2OJI4axOnazrMm7HB0yOvLdnu4oBqon+bQ2l0/9NuKlz74YetC6h5Vc5SEn+ukCGT+N66/88JaSIzbQmoxOfMAHsig/13W2aP3Vj/UVn67818/GT7Y2yFovNw6cOWZNWnCmkRpaUjkkawwVg2/k3Nhm4vPHD59sER0J4ec35D+/dMqjAlsbQdwOeTkkq2lyik/PA8EhcqCt8cuFTT0oTg1Mrx/eEd/k3mryIBOTrhgunQcAmV8X1J/QWi5+bvN25cMa+MqfUaxqKV/rdKLywlfP1pTf7FqzA7rrI7s+wtLVh6g8VjcZWLNLF0H54ScvHzBH9MijYiUzFiP/zfOhFvXSF0eNYI5Pt/yyBfrmezfwFvyzCedNlhJBCmj5Ac+6JNsYVAJ4Dm4yhwQ/nfyZ0ylOBSI6bLosZOWE8MAolxpF3wGm4w3koEKx6OLz7dD35UJ50rE290UHXQ3lv7hLNRl1Geiy8X/m9LOXt6GPr/Lq46W3mdE/fNoGlx+fbaIYRutiyg/qEcLvAVE+5vj1E20/s6t+a3xgY81PMeRhXY2hPFE5bQxgpzbyxvj0xGMTT054CIybGx2UXUTHSAbNxYRsN/8gp+yMbNmVQzbJrKtDnfRaF4fe+XYR8yzulRIuhdb0jDWxIHhGm2l0qGwCuYtHzn8xSqp5a/qtyRAeOz6BzLq4CBwCOvQ7nPSs8wPs5NThdBnY+WhHH69NK4/yKi5blH8XjR//vLcLhsdnF4xvOfkyhb1Ldv1I3VurCwdk7OSTnjzAvB6wcXnV5WIng3IHfAcZz7yRff7Z2Ts2iI41oof2sNJhh4rDBz3rehSxrR46eNnxkb7+0uOrOhEbskYy9sXCxzPfB8nmlj6QxyuuPlq3x9VCN2RDB5+eMX/nTcYhXEcKzRmGAsRLZwNLhlxwm1IzwZruJpytNb1k0GZYJ0fxxHeArR3ELpm3GJ45/x0OPGhjEBtfVPiCwu+nfFnRG6/DDfxkUz102Po/cfoI6B8g9Xsuh11MvulaG+n73+H6NYO3Jf/At3qKkf/lQT6M8iIDI1KvQyWetbkY68fhgas9HahXkE165uzKD+RTjzZ3SH9zFsccidU8fbqIXvukx5AtqMP/+MNDDNRZHV0MDzaEX69XD4mlT82NYtLhp3yqI7sI6o+xGs7cJaNUQJBYvIV1snRztHMkYYH8gN+lcmhLvCYVBx+yZ5MsCmw3jy0+EpfMQalgh721Jhut8+XnJZcjnjeBg0oX8VEe1eFA0/Ulh0vWL6PbMJtvDn6GYUPerwVctD10ZCEee6OY+hLqS4eAXD7yL1frHjL8IXrFRPlB2fG5h58NGK3pkHeQ85ufdM3Jq2tzKGfrfPCXTXrm4IslMvvoyy18lwffz7n6a9/tlctHblR/eaqbfTnmW6zyaYzoIH7Z8oFCcuAnlP/t4yKkKAGBrDPCKzEj/vIErUHmNdWI8AVkh/CMJWitiPUNbLKnZ3TokkM29PKHJx9NLi653MiK5UCS0euitCk20ia6DD0goEuI5OIisn355ZfPm4yNONXhSYvY+xWBj5QIvG3lUv+QOV22IE59oGteDmBtXs7sED8eFHjqk0+0tmCN2BnFCtbFUC8Sq/rAmE76Gyt/5QbpxFOTnPNhH4yB3EWi45OGtU8NL7744hntkS+KxFIvvXzI2ZqNWC5LuRUfWZcXsIEupv5DuuXXuvn6uv1rVZgVLEkKxuSNyXKS4+acIk85B0mS6TYWx4iK03yx9vzaXLCmW7yrbyDXFKN8egt0wei2Efx+/vOfP/KNA+R0bZRDawQbadPKW3wXzKVjQ49OcDDEcFD2n0srd7m0ieLz0cHDFwdffvUjHRcJyaN86ot1uXmz0uMHr3HBFtgj4AdfLvyJqU6whmpRMzs69SodPDGvcflKv7h8yblajXyr2UPN7yB9i6s3Llg9pytP+210QZCY3ngepHzTk1fzax8C32rng061QDXnq94FvN/4ZTRwhB/P2JyTHAcBoINAVjISw2dnbSTTUHpkGlFyxYGKLp9AJ734xeRrsb6hnPCR+PK3mV0IvujJka7LQGZu4+qBDWXHB77N8GAhp1+Nxbd2yF955ZXD718Ehnoohjl7h0KMai0ntnTM6W2ses1PfSMDhzB9fvmv9g59sfDN2aP6qE4xfDsqBp1kKHvgT0y+yxFVKzkiF6O8yMtFLLLmQO6CuZjl42fc/gIrshfZ5M+nDHb2gG1+UfmZX2uhV8741vwZ2bBtjRZH935+U5A0FACO4p0TKBHogJBLgow9fvqSwuutpmi8Nmb1+EDmSPOReTEr1pptm2YekeVDbmI5ENCmQT5tLDt+HAobYM73Pq29xYpXHh1WPulUK56f8fqGz0H285oN4dNbjW09NNIrN4cE8Sc3fDGNrZG3UjHk1sOCjhz4ELde9iam57BtndUWrEEfgzjlvHtgBGP9kQfddMRMD5894r8HGDs8kB+0j7619cADvlwa+nrJr59v1bs+Oo90fazky/7QYcMv2HeoZvL8oPYhYof4Kwbkb/Ebf2mT41XEb51u8w1ijteBBaOk8cjpNXfYJZZvyK5cNIwcvxzZ8CPPDk4+6IiHlw0fmmrMR2BHFx/5Ot0fCPa5nr0YNtqG8muj6MvdWC4dWr6LIR44vMhlwLeZPuI4+L1ZqpE/o1hyLld69VFO1sj/6cXPemSoC0yPnD1/RnL+y5UfwK83uxfqUics30dd+nyWd71qDvy2N+Lyzx8+Hn1j6/aAbrmJY94DQO584rlsPjL6JtgeqVdu8u6Bypc8kdgffvjh2Vu67VN5s7NmiyceWj9BvtHK8tkIdM7HxeiqLPjyjTVFsfFAcukaNeSKTZx9c/qgULTgVyGQ/zYDjPiIPw0yb+TPSK9GdhCAjD8fNXzj5/db77777tkQPzf5YsIFocdWPuzLY39hbR1seLp6UXx1uwx4crRmh/B6+tPtosbnywVxQV977bXzs4U4HTw5OEByBQdRnvzVaznx10UTgw05u80P2Gcbql+O8jaH9tQopgeFtXzpyK+arPmRA536Adbm/PPTw8MoVzL64qijnrArF76t1cRPb0H92n0K6bLLtvyQPMjFLQYe1G9jMiBHD/6TcCAAmQAlYF1T1xlscDBnk2/+zDV5N6dEsq2wnW9+NYi+OSoOfbl6wpnbBHnhdfjw8RZdZBes318Z33777UdvvfXWuUjiyR05LIFvMpfUBlqL29MyIoPWDoYfwh0eOUH5QT7kWi3I3JcnavQQEFs/+c9XvSlPI77c6Fo7sN4A3s7LK+b2kz9zvHJA7Y2RDSJnI5d0+edjiU5nCxrpIn7VwEcPKx915StPcn7M6Z3DfKeTX3Zk8mCHfKxUsz3Mpnyqwxz0Qx6QPzZ4xoi+uK35gfjWZ0cLFAhSBsbAqEuxjcOPss1esvnOT9i1QhDwD5sD38U0z9aavjXig106Eb0OrLWxuRwd0hoIZPzYYG8zfB81yi09Pj1Foa/n2cmDrpFfT1IjIu9AWgc+UXIX0UHp4OD5NYF4HgJ7WOjwB3Txe7CoTf341YzPt7d0+eN1yfgyrw9GvHwgczJozbeeGZH62v9yzLc4ydTAFx/Qvm7P2Lgo5kj+oLcehPwjeqA2H6c9kPqq3yX1MZtMzvVCPHHEN8eXH6IH+HShcwDsrNlAMrrmt89NFWssSGP8ksFjHC/da/M1U9FkkE2ooRVBTn8LaX4tAPAU6JK0Jt9NBnJEJtbVb28nmyPn9DwFHUCbmT5eG1HNRnn4ONIvmYNcgH9vyi4qO7Gg+uWSXxfMQbDJ4svj9ddfP3z/I0D+2MlL7C6EeNah3OqF3MWXI33++XZ46fCLJze+6dDPh7U94qdDXR5iVVu1sBML3xr4Vkdvu2ok58e6fNnRbd7D0KcN/VZvvtmaI3MQW298CaVOPw/7JFC/grr56LxWt1E+6mVTD/JvLZ9qY3PFM1cjKLgxSi6gOYpvVKx5zZGsV3SbgGDjGclLTCHxk7W+bmpxVt9cszSWfnw5a5CxhvADbQi9vuQw73LwY2Mcgr7FakP540cuRk9MT0o68cz1wQbLzRvI6LCgNtthM2/sELpo1t5gYn7wwQdnlJcYSB4d2EDeiMga1aJuJEe2aq8+teOVT3WYI/GicpSvNbn8+FYnan/rtTw6yAjqF3t6HVrw6YC8vQUfz/Hx+ASXjh57fuh6y1nLrV44A6APYgY2wJ+8yhfoAh0x+Al0s6keoHd4hB2aHEo8Xkkv0q0RJQ30rfNhHSoS2JuTS1yxxZfY+mleHtZsN8dyMY86HOzo85GeDciO3NzHPfGgL0J8VPQHfflxmPigy8ZhRMlcRn/2USwHoNhiOLAOpHz5RHQCvfLgswvvcPjZzcehb3/720dXXfJA6hAH5FwsOdSbDm71kvGrVj7aCzX0L3XJwcGSB6JPz4h6gBr578CSyUcsxK81HTLxPVzULne87FZHLJAHVAfEUyc+9NCyxqdTbfpizS+efTVCsdiZG4stL2CLr1/1mm4oh/ywM6d7Rv/JeYYa07yAHZb0lmqqZDos7DrI1hJMBmKQGSXFx/oM5jWkAtnkq8IriKzmkpuXX7m3STURr01C1uXDhwPEn48oNhD4Uh+y+R3sYhtdErwOM3uXxcdGaz7I6FQbVLPY3i5ivPPOO2ctlnW5sespW1/Ylr9LELYmuvyANZIPHW9ddnohPwe/S2StPn68ucms4/PBl354qLDpArExR/hyoNclFsPap4H6ieq1h6C/PqQ+v24xF0tPydiIQ59P696y9Njxoy5zkDNipwa2QY7sgvzYApvdM1BfqM9w/rWqAjHauQIhXnPGrelJrHVNxkcFzs4af3nFYkuOj/A1ozwCGb10jWyRzeqQ5U8D6Vkbi5mvNrPDQOaA9Dne72L45MuGAj70JLeh/RMD4rDvENo8Mdn2tvEk5xOvp6xcgD9+2TsUPiLi8YXSM5YzezHUgS8mOBjVtHZyxHdorjJoPxDQwUs3n0YHWfwuGr765XY95OrqwiJztkitu0fkgMcnHfbFsAf8+5WLS8ZGX41s+DO3N+zwfFz3JvMxsh7ll9ycb9Sl2zNori56IJeoPOOzOdT/cCLnBUIUcwabRHLzgkDJ0O3wbLPM09cAY36NgKcY48aDHbND+Swf9vwnl5cRH6zpAT8Oi+bh2xR//MbHtA4FHbZIXfSqBeh4erpkHSIjXX5drn5mcBA8iR1wB6HDlU/URzYHQm4OVPlXt9gOs3m8dNSOykVfgBw/4LMNfCK5iIs6uOZkchO3C8S+30GVu2/1yOh3yL3JxUPy4sPYnrVffLBlQ6Z/eOKYqw9fDDq+TPLpwMXRS6gX6mAnljz0lL5cOp/k9OQvj3jimAf6yZOVd2CHxx+Y334ZnbPDvCsAGOTIyDD9GpNdYCOoEXkaRAUmR3yg9IMC+AZystZG+kb+bHy5dAgCeVQsm4WgmOTmNqhGdgDk4ts8P5c5bMUysnOxjHLqspRT/uuR0UY7KOTXr/WBrQPGlz99gs+mpyrQt+YDdVm3HhS2J4FdI125qWGBrwcujbm48jOXo491HkYeAPnQWz7lYuyydNmrnT5fxRE7/2x8TObf6MHVV/F6QZ9/Nvz1p17wEdQvZN+86XrI8Suf4svbQ1D8+gJ8dV7qDV1UDXp7XW+/zc+3iymBeYrm5JChgPg7RyUEfOFZKyZeMYDfk8B9cgsy/GKm2xqywyu2hmcbyWPtQvY1OrDXbE9Gm2NTbQo9NuJsrQ4QfQRGG+KyAj08B8eb0YF1WNhBDx/kYjuw9D1te1vw5xD0RkHsjJ7IPcVdyi5ueapHX6Cc1bGj/jSH5YPcHfT6W3yxffySGx70oKrvYubPvLef0dmo9p2ru4/qYlZPP2chPvWj3xfuRUblXg7J9oEkVigHscyzE0sO6hFzeXTwrYsXWrO5/UxGOaZ5a8mQG/F2vno1WRL5CObk7LLN78rSzZacr2zAXBNWP1+a1KFNbt4FAbGS57/m2lwXAfn5yrp4NoaONR/qNDeKyY/L48nrkPXRg9whNAcHA8/o5zF++bNpqJ8VxE7PR0ZPYn6QbybVTd/aE5oPc7HlqeZ6s7kaI/LyCvWEfFEf5aY2EEc8OfMNfOpnfqyNbDw4zFE6bOnUW/xi6Q3E01+/41K3PO5+1DkHXGy6YuDzBfyTudTeuP4YGjnST6NcwNtQD9tbJK8+psdP3xq/+vgSL558Ae9csgrfxqOUyJa3OvEaOS8Z8/j5AGNruhJevUb25WSdDeoQZEeXHr4N0ugK7ZJphA17yB8dB9tfQ/FFhydtB52Ng+1N4WLwzRZsgpg20kZ52orDXxvDpnxdiN5iLhBf4uNZs3FwxHRpvC34w0f088+mSxnUll6968ntcMpHPHxoXh+Abnx1lru53KzLvT2SA5t6b04mZv70kBzYs+nNgtovsvj2gb296OOjPPTGPulTbxJ164eLz0b+7Z83I1v++hVKemz9+qXeVjc+3/LhB48OMkdQLOvGZHA3f1oRJGuOBMpwgY+aa6YGSqZDglcD0tXIksDjm541GV6Fl08oH0inQwPy5sMG5W999lGFTc2qtmKpAcl7D2V/XpBMnJ6aQE5XLDDSzS+in4xvl9EFdVHkZCPlyAY5RA4Z4EN1GPnzMdEoH7rq4Z9O9bnUfPPn6e1w0W+voNoD++KQGSMo9/IQkz+gz7/D7s3lweSrdnrVQV+N9KDcywlfvvJmq85qqn+wPbW3qP4FvtgBvstKj008yL91dYL+1R/50OET9WAxssNbf+H2j5smhGsCIFDB6O8cOWTI08YmVAjZbqjgKH8SA7Gs6UM6xSrp6zo7VL50kIuuqesHNKU82MgP0e0AyZdMU9k5NH1N7FB0+cjJrNl5YrIjE8eB6AIBW/66JNk7VObyECOZpy199sWuZ/vEpituBPjyWj1zedkbsejiowV/9XF7B3zpLfv8WfNJRl+ODmhy9fJJLmbnAT/f5c22nMzTN/q0wJ9vZ8Xhnw7f4ulb/ekhyY+99SOAORuX177QRfLvwVZcPo3VL3cwR/KRixgrq2f6Yzz/Fj6FFeaguRGMbdBeIAfJk9sF64kSH3lax9tYRuAL2oDilUe8bJqXQ3rmGtuBSx7Ra7PEwjPH24eEWsh9zEPWNtVl2Kcu/2zyxQ9+G813G5VebxW++tJCDLZIfx0WuqhDhMjEAbqAD/UAqhfxUc+MiB91yEW+DiCkV3/4Jof8FYOuHBxOei4LXURP3tWO2pNisO0C4pFbywv0lqx4+Hx7CNLzluSDbw82nwbAg1Au7BG+0fnzcVFsX5akJ7ZaOzcIrzzFZF8fkXW1tE6nfI3166n/4QSkWJDrCIqjI4Fevw6ny4RcLPwuXgdXgzSln1GKE0GbApuHIqBiyfDolp91fjTNWtPY0EE2DvBBDWwcFjy1eVraAL8EtiFqcRkcfjo2ufxrLt/01EjXpdSH+PKk62D7lYBN9msBPuVK7iD5OFdu9YJ/vK2bTXXjqcOIwJiczBzyw6dcxFQzoicesK9X+YR8GiO2eHpGV27WIJ5YQIbv5x89dg7kwIeeQn2lx1Z+eMjZ6ltODyhrZ4uuXPVF/1xAtvLim54vs5xBl46O/RGbXzXTlz/kK2otDuJTjo1QzvytHJ1LZkIBzOH/MkI2xCFSMGhS+sF6N67DpEFtSEXwyZaNgq3Xhq6RzrVgvBpqnl8E+V2bNl9+YvQENSd3+B0Cbx2Xpp9l2ngwx6Ovhj5CkVuvT/lZv/fee+eCoT4i0jW36fzJUW7JFmTq4q892lH8+mBEdMEc6EI68kLylyvQIau+YoTkydga+WFjjeghPHIx8eXUZWj/gRz1ICuOml0S3xCydYZ8PMdjr5/8+oRg3+iz7yXg4edy64+YLhk9vunxKcdiyhXSj2+s5u0rfjWWb/iN/51t8wItDxWkw0kPOM0uKrAmaJqifB3tAOOt//xYlyB5xYlnzZ/i6Cg+e7IlNjWNLp45P8UiJ+uAbM4eAnIWQ74ugZEMVStb8/zTZ+cA2GBvK4Tnb1v3Fusp3uViC+wD/3yrt3hiOzT1qJyDPSFTJzQCPuKLjZzN+RTX6KnPR/vDP0oXftvY5al3/HhzsAX+q6GetpYPP9Zs8YoPfPHvorDz0PN3xNRDpod4vmhx0flCbOh4IXjr4bH3M5kLqe7qE5Nu56t8QD/Eidccyh8fb4mfpy4Z5LSAFV/BNQyOgzsSUGJGxfT52BqVgCZ4K2hi/pbaeHOjuJrQxbA2iqnobUp5kUMF4rOvPrz8sjeXM8grPZAPnXJzeGygNZ98qVX89OnIDTlIeB4sNtXl8vTmQyybLQ86Gxesq6megLhikkfsq9WcTjmxy0/9cvD4MO8ypaMXLvH2l6z8+A/ZiLF59PFYjXx54IA10Fc3XTYRH+VSzHx3jsxdKBekNxOec+WjfQ8vdmT86LM5fX78YWt7Qa8z4OFCt/3GEy/Idc+H/iJ9sp/VAuyBPziXDDNBThrBHDHiyCbRF6RDhkeuwXR7giC67Bw2h0wh1kY2xTaWmDlb4C8fjQhfbDbmyTXUYSGr0eTFM+8JJk8wJ2/TbEZ8m7ENri7+1ctHDwP8/MtHPJeNDyPiC5UD/XzjZweNcnOB5aW2eoMvD3Z006eHz+/WXT/EBb7MHZbyt6diQbmln5/iJG+evEvhAOKJo0/yrF/Z0q2f+d14SH780ZGfs8SPy+bt5QFOh68edHyIIzZbHxl9zLQXzmEPQTn42EmXXWCPykkfy9ecrpEPemTqoN85MN5+JkMpVkzzZCiZEWoMnQJIAozWkvfk0IyaRR/M2Rk3vg2HLRCKsygXEItNlH6549UkRCYWeX7J2eFBOZYfoqP2DmkyY/mo1ea36Ta3N6ERzPkJbPlpzLe65OBg1ddQHfzQ3bqriX17la1x9y+et09xETQnr4/lCNbplLcHEH75WRvx5APW9BF/1nIyB/VCsdPzxvL2cllcHCOZ/dBbvRYjP/pPz8WiZ+6Cyo1fb9v2CYpjDPXKecm3cXXkWU3A5vHLL798LhkYm3MG1oyuSFcgQT1djJziG63NFeybOqOist+5eBIMzSsU4VWEsVg1Px81FvA6lKicxKYbz9rI9+rTAWO+8emtvDyt82+ze2P5yBJ60EAbYs22uMmAL3P59TGPzVK25aU3PgKRxSv3eNADxRivvezA5btazXeEdMqnuTzI+DLy7SIAnS4RWMuhfYX2BNFlq58ui76oSZ/5t0Z6ja/3Ypo7e9ZkLpNLaawmaB2BuFtT9cgLj2861tWcTT7u+E83jDBH5rBzUAieUcGSUwSeoPj8CUbuiaMp5hE9yDcqB/IaRl6sUGH05drcaF3+YN6IihXoFfc6Ly4Scwlsmjk9Oe9Gd8Eihxg6bIH9lVctxvIwlz/9aoL6tv0ANvWMrMMqz3yC2HxmS6+fYejn32hdL0J+rqBfHL66HOLpha/ifRHR4UTmffEiFnRWEJ6PdfUBzMWydg77MkOe5W8dzO0N3XLEU3N+yqWeyKcaXHQ8RF4MMMezju55/3uoQkXFMzIwxs+xtQvm9S15azKJ43ti+JjYYWuTkHl+8wUSaw7ppAfk+RQrnzWGD41hi5dtB6/8GwMfdNLXVDx65Wttk/hFmt/BoKNmOdFBfNAzx3fQoFhGoFPOfIE8ilNNzRf08gdGvaEPcuC3/O1V4KuYPQys9RH4RtnXh4dQLfUP6Mq5L0QcaGtvNT8nRfooX7Z6xE5O9OjzXe/2PNHLpjdWfdBvMn6RHKz5QtWhP0FMpP58gzkbvsXCl1f7wUf9Bvp0z//VpUCMcpiDlYXrHNETSBI2kK0C+0bNXMD1aZSUhLNNVvKQ/2Lg012d7MWhh4/X3Ci+Q2QO5WQtRoegS1pcPLAGvJ5kDgZygdpk6GlZ4/WAPV9Xv2Llz7zY8lMTWZdELHr1Kt1qpJt/1KarO5v0yeqHOZ4e4NERs8tI5zrmBxrx5dQ8IkfFk4s5uGDZ66GYdNQCZPWiy6XPePVFL9NB1vK4xkX8k3fuAB86u4gfOSTjH6nbmL/iGK3ZQXa3r/CBMAEjWF6jBM1bQ0lXgNHbzeHSFIlt8IpoZIOALkov/uopyEinNWSnqfiaIS/zNoQf+ZEBW3Ztamuj3OXQ05E9u+LVJzE8odmZ03Eh/EDNr48xDkY9yBfwxU/x8cUzxudXTagagT/2RjFXlp0vMsjNoQtljeTJh/7gV5s1n3IFfq9xQ30gLwc6rYM5O6RP5ehy90DA1zd57x4mb+/46GyRFROKHdHlq7coH+wQ+dVmzw9beuysjXTri3U28qETTuzrL6NRDjkyB6N1fCOsnaAS6nO1C6Yo+ig9tvkF8wjomO/INztkDfmxjlcc+mTlahPwbGobjOjI1UGDmkgvvzU5X2TVWhw/d7I1Bz79gVSHhY0Hjjcbf/zQNfLBH6KXj+KTo2owN1Zn/tiYA91sEF9AJ15+5Wmdb2v6XTg+1RiyLVbzzSNeY36M5blU7UE88ZHLUA/p8mnftk945Grw0ZJevcXLNz7b8jSvNrrxi0XWPJ94nRE8YOP8GLu84eR2P7+BIQcbDNUIfIYFSL5wyfxgq0DYoFCygRwP8iUWZCs+WTkEdvjbkPzTy8bIR3y5tS5WG7JPIzz6mqdusG5z+XWBgo1zOPzZPE9nufBl8+lH/NIzFjeYszOujXWXYP3xUz71UY5IbF86AR1UXD5ADeXDv1Ff2Kk7n6H6y5k9so4HeHSbJ199fuhYi+3t5exYeyj5osMlc6bI6lVxHG4+6pe53IthDq0R4OsXf3jst87OAF521sbim9d/yGd8OievmmDEoNgTvqA5DmRRNuniZd/6IeKzJ0nJrL6CUL7po9Vrnh/6IT9Rda0MTzOM1uw393LE7zAUs43tB+1kHVLyagCHxIYu+M+vHOKF7bk5XeCTfj1BYpMXIx4Y6eeDjJ7ay7efxUBNfZGlfvbrC1UXv2h11LO9Eg92nX72qLeAPPo0JI5PQ+YeCslR/akWunLnP5mf97Yv1Y82Rz1AeIDPh7X9LUfIvgvVfrBZ3/k6mcTglEKJJIMCWJN1U7MJ5JLyFEKL9KF4yDx/JQjyiI9X4VA+dNYPmLMjg3Sz7eJsTDoIz5pOejWv+DYMv6c8G7pGm+qA0OtpWH/IG5vTqwbAp4/w0m1dvHJC8epjhy67xvpJbm50sLwpHFr1O6TXt1exF9ZXHt9QXtHCevejOto7I768XCq5GX0y8CZbe5BrtYhPZg5qKgf7A3S338W2NjfyUT7yM7eXYI6udvTEq8fZk9/+taqUEzQuP0OQSHrJa7JgnowOmOJKxrg+2G3Dk/FjLfFiQDrlG6zR1V58UDhZNo1ii1Etxm2QkRz4r4ldwDbAnMwhcCDMxeavXFGbX5/wik/P3Fg+CPDY8Gtcn8Gh9NGpw2aUq5E+yNUcH7HxcYyfHorVtL6zD2TxxConuI58oVDeyR+aZ+MMIXkCmXpa58ubbj9RQL10CeXHxthZsGfFpcs+3ubEhhz4EN8+pFeuqIcTIoMzJzRpBJtsbYyXo4Jf10ZrztlI2EEzX5vmWwi+WEA/G8QPeSh5xePTTU6mCc011FgeDpE5222W2HjmfCFzOm0Ke7CRmsmPn1lsDrhg/lIgn3TYsWdrnT2/XUAxoRqqzUjPmE51lEu69JCDZiSrlnIHo17mU24eCPTVU45RcRZ48a9yfsUDsZOXExizbZ1uPcGTH3/WRjo9APTXmK6D722Xjlr0gtzI9/Zw/6SIfhiLBca9LMn5V181gpzRzutjNcLtTUYA5jlFwAC1BjprE+EpSjNK3ojAmq+KCmyKQdZYg0q6Aox8mtMpNuQHZWczNEhegN/TDTS8N0G5axqfCF8D0TbXk9YFY8uHDYJy4YtMHGO5saNDXm5InJ7e5PJIbqSP+NjcgW4+yOVIB78LhvDkLBf11G+y/JJZQz0kC9msXb7XrnrXX3ZIjclay9taLWRGfsn7OJ5Mr+qx/uQDH+yHb7n9GdJ+tpN7+1dcvHLRP0RGj7x9qrf0Alu6dMozX3D74iPD1sYatjx6CJJd5VuAYIEMb+fIPB+gkLXLr3EP1Nq2Jndwev2D4jt8oC6bUg7GIC7CS87OU7KDCmSeoA6rb8NsfDnLR+ONemEEOQT2eyigXBAb8uJ1qORejvIx4slFLPNimvOVPb7e4MvPodv8diwHyAe7ash3uQCZfK3J6IB5deQzFKcYUG1yXHkx9dvHXHtIxwVSB9C1X/UC2PDpwvXJo37SI+dLjnhGhE+PHz7JoJqR+FB9i/Sf+od0jIiwMZhzuMGAnmCAz4+PIZ44/WMlDkvJAL18KID9+oSrTyg/BPGvtkCGNEn8Nojf7MyLA31h0YbRt+6r7GKLx5+Nsdn89wYLDjOUm/rb4H5u00u2PYXlSk9O/LfBfMQjL35jtaLq6xBVM2w8PAe5/BZsIF/BvPhAvv7xi5tOY30z8tO8cdG6Mf3qx1cL6LPe1zs69QSvTxpsqsXILr/G5l06sEbqq1/kCD+fzenwW45Afi6ZSYwco9YLARTByVI+FOapivwVb0/LLiaddBuzswbr4tcsIMczNk+2c2M+HCgHGmWzOh0SfBesv9quUclcDOs+ZuDLy+b1pUGHFbUBdMzLBYG++IOxfezxrZlfWvfvXvRH0KpTPtAl3Nzlo7fp8tcFpi8HF0p+Rj8zyrtcgM6OYphvfPHiFR8Vm8y6ersAq5te9ayv7NdX8UC+6q2v2aoxHci/+lG/Y6PHtnh8yRWyz2+XD/GFx1avgW29b82XNaLLJjr93P/hxEKQAhhDyYaclZi5J4fN7t9RUCRIiA4f+W2+MvPVwccDPGsgU4TizDWKXgfS2FObHZjTQ+Ap6FA8efLk0RtvvHF4cna5fESscRE7tamxvDTZeK3HKA+ojv70efkhl+y55547l9wfphabbRvHLj9BznJRH5Kzi+sSiQ1s1ddHLz7KuYNozRci3xGlJxZ+PcczomRI3uziNY/YAT9ofTfKaXn0PKxdALVkqyZ7sXp4RpfLQ6d9wmvf5OiPuRmDPOiAsfgBz17ly56zb2y/UTrGU4t/QZhDQoLGHEdAVjGQTDKCSEKRCvQU8bdX/XGjPoYhehJjx1+2+dv4IB7wm4zN6rE3579N6xDICch63ZOd4u/02PqXjL7whS+cQ2ojfcb3EbE86dAHddkstg7wxm5TqssIdJKx0x+HD9/IZwfCH6hm5+KUnxHhW+9BE1dvHEL5yNvb0Ij6xo0Ne5dQ/vpSjnwgvlE18xtBvPLSK7r6xD/CEw+PrhyM+FH7YE4mR3MPF3Xkx4ODfV9aVAsZe3kYtxb54Oslnlr5w9dT/QZ9VkNg41yIYc7WmJ21OGIEMihuY/2E+/VHzTVirDKs03Tx4tNTBOTH2GZ02CGf+EjB9IpnDnwkJ+Mvm3xd58W1CfyI6+AWv40P2Tp0/l/MdG2yPHrK0VEbYq/Z9OXFl5hAF8/m2yR5kBvBiOSCT59t9mKa9xbKDl9MmysHB82hk583noPSIZS7tX+spz+MLOfy51Nch66+gBrxkXjGrRmvnPKBr1br6yW2F2AP6ODRUXe6xnLCLx4bvH1rrW494wP1YFGrOlwsD7A+iusdHTH2LLWHnRukTiAH8s6IXulbc3ZGOijkE/jJ5+2vusRMUPDlc2CNH8wlg8iNEvB07q+5KFaBis2/ka9NppFP+ijezsltiDU+GPMlB5tk7hD2FLR2YGsO8nPKXQ/O3GH9+te/fv5qepsM7GxavwfD75BZy8dml6NRfuWE2JS3J7Q3vMMBYuuX9Te/+c3bX42XD10+xasO4LvDw2f1tcnFx6OjJw4X4otfJKZYyFoMZM0nXSPC7+Djd5HNW4trRF2gLkRrOdUXFMzZ06ufIHc2zlG9JLMf9pMNvrzo6jMfeOQI+Mi3HhePL5dT7+RJfx9uLhiqj+LYd3K+9rzyaWwfyG4/k0kAdZEoWjd2QKzXqXnyRhvpqeLjootm/pBtcUFMIC++eTBHNRzxGZJBsYxtlro0hp0GFtfcZvkm9Gtf+9rJuYPBHrlgiI3DZKPK35p+By+50Ybhu+gdDDnaHJsqH6AvfzZvvfXWuVzid1CgnvCjFvrG8gI8oMc3cnn9HOiQ+Pf8/d9NxJET//xZgxjWXR61kxnFcMhCMY3lQ8/caM2f+vmzdi78/Cmv3ja9eZwRuXbYkbWfX30pZI/oqENf2X7xi1+85SQPceUtrhHE1Y/k5vrvk0D7iM+PsyBX9nKF9kYe8ua3M0Onhwkb4A82r9tfdeEISggt8DmqgelphjkespaEpFwwxZRwCWQbmrO9It1ibuzsii2/YqQX0rE5NkqjNcchcqjffvvt8yR3+Dp07Olp2B667PCMGm1EDgC+w4rM6ZuL65D5FtHBsmltrlh0vfm95XqY1F9zuuVenx08azr8sVMnXXyx8KsdyXf3kR/6bOWqBnIkDntx6YFcNpZx9w6PnF57wi+es6B2uZnzaU4mh/IWm618rcVAoEf0+2TRA0tc0Gsx2VdXfdRj+63H5PUA0SHHY0duT8nUwq8zIm+8HiBsrOkHPhCf54uPgnDUmIF5yRsVv3rJOLPWENTHRZdMo8gUy+/a7xzMo3h8s4sPxc1HOiE9KIYD+dJLL93+yWaQo7eYg6WJmtoG8ylnTYzoaG4XLf1InHK1Lk8b44nsUPFhcxA9/dIjOvzpGTt8h6eemncoHYJ05MiPtRHMkcsBaulQl7/8ysdc3uXEf/03F9uaT6inbPhKN532whqpSxwyeXReULlnY64mfnsgpE+nj3ouGV18fdBDF07N9NszPvgCunguWvGM5aU38qEnLqr/5mTi8OEjtZEu8AHW1XQuP0ZKgiEKrWs+HpK8cfXw0ILzNsqI2MD63zF++YjdxZQwqllG+pF1ObGhy49RbuI75DbBwaLnqdRHs352w2fDRxu9qB9GEIP/YqEOpc22IT6ueaNY8yl+H5OMNrA8HRw2XZ6IHLbu5Rcfv36SW8sFjPz29mOjDiM9vq3pOXBd0FDtzVsXMyqndPVDPHr67U1Exh4vqgajHnkQ4rtU7HoDubD2ytglMqcrjn77f5f5tYy+8+lCtL+hmA/N2fBlrM/6gyeWy2jEt29G9tuD6rn9TwDXOVDs4uAlE8iIciIJDaMvCQ1SnOb0JoMObAVlLxbe8nedDRR3+eXJD34+8bvsPr56g/W28PGw/xVqceirBVmX18YyR3yqU71tAhJPveT08VykfuHs4JLxQVfM8nUI9Mion/iBvDW/9Vs91uogzw6PXDy28hS/Q1Is+o1oa+PHmhzPmi9IpvZqReT4xTfmExxOcdjJxbw3Kf3yUA9dD0K/b+3LGWeqt639BA9IPH7w+eaLfxe1N8/mx1fn0RrZDz6gesunt3D7wz+/xt62/BefPyC//QvCmDWxRBBZygUxQjbJJKYwT0q/WFW8j2J4Aks0v8VgVwyJJs/v8gEvP5sHH60rVD7l5JLJS/7+meZ33333HDa2dIuXXyRutTmsvWG6XMVUSzkVr00xt9F9VLQhNglsarkbbbye8VdOcpAn4ouNAyMvsXqAFZ8vcyOdbJAa+NUDB7gDTx/fHNGtLn7o4YknRjr8kyM+jfjmUP78IJB7uYKavZ08jMXZtbPjktHvZ+VyFtvbisyXRVuLHpePh1C54umHsY+c8qgmPagekH/51n89wPfgNO9hUO/zRwdObG8yzLDzkAOU8TrbOafIwfKxwP9sQUJsJdvG5SOfCgz5BHJzTSp2m9u8+Ij//LlUDrbDJR8b6PdINpA9W3pIbsYuBXSY2POJ2pg2zdym4tOLbwOsvcF8o9cFd8HElpd41RfZML7kY92m0pOLnPCBTG+RQ4hPl608yiHf9cPBsDf0+HWA5JUeXofRmpw/BOTikEMjkFkb+ZeveHqUHyOdHjguUmt7ZG3eAc//9h6pB08MKB59o7V+qrUcEB/6hQdyRfhs+DYH/sn6+Fw/9VYd/Bnx6LZXyBz//J7seLtDCgTNQ+vVgQ5pa5tDx8b3qpcgniSAfb7xIZ/InC6/Har4aHPQkOb4rdmae9J7i2lq/4pxdoiNtbz9PKR5PRVXr43EQ2KAQyJXh5ceGG2Gt7n/84gcyrED48J0gfInZxvPn1FMvDa0HOQqBh+e5r7MoaffHUxyvvWeDMzlQs+Dxsjn+pYLe/mIK18kJz6N1uQdMKRnxebL2pxO/GyLU1yULL36BX2C6OGtDrrWfJDLjU12cmfDV32h28OEvTOhR3SgHljT4Rfo+Dnv5ZdfPj9Hi7F+yfHKXS7sy+e8yY6nO2RccY34exjQ6rShrRXokHmCuGQVrLASyocRGiFZ8tUDc35q7KJ1o9jmDpUmOHD82SA5IZvmoWAkc0DYmO/mbfOgQ8IXPt90+HK5vMH41FM2HT5zumqob8AHyDM9cv47jPWPrie5C4a8MfVafBufjvqgudzsi350AfiVo7gonv1Ccik+mbXayawjPJQ+uTXf8sYDuYF1c/nRaT+MDrQHpBE5U2pWozcefX2kS+YC+i6gPx/avqhXLHM5uVzq7IErv859Y7mwE6MvpPwe1eVCfMnfSA+x35rQU/8kXBsjQMFWOZ2rTBJBA5BmaISvyD3lJaz5iisOP3StS6xx/aPlJ5MnkJWTXIz5Fs/TSwNcOI032khNkyeyifIEzc8fH+ZQDtCBAr7o0Te3yf0Oh20bQF8+ePqRzdaO1+GF8laXw0GOx7c35Ze+9KXzNuPPR+H6Llb9EJONetXJj597xKg2cqh3SB4RLM+c3+Zybx9QfoJ1+2WuJrXI28+rZOpwSfROHS6N/MnomsuzbxjZ0u/juP2rV9A51g9862pxJtQvl3I3rw/lR59fMuT/L6d/bNWP2Dbmx9glP1/hA6YkrCVWgvEFMwdrhUgifZSv7KzpgORrgBHIl7IJ8fItrjWfRjnhtQF0iteoePN+CWwzPM07cOaeer3JbFwXkb+txVwdNthoLa4cyo89P12wKLTJ7NmgkA8je3kjvA4ROzGRvL0xXWpP8nTlAOL62tuB8oDjVy0RGLtsfHd4rNVpjY/k3oPCXA75QGzkYJSHuVyQuRzL00WSt777Gwh65rLYI/blo2a6+GpFHXrgSx7Vww6Sk/HNJr+t63VEVv5IfH7J1O1y62U88i6XtTGC/JxHSwKKILg1J0FwjcUzzxGYs+FwD2AyG2WToSdKBZKfRO55iH9jMcwDWRdn+UGO/EY2tbeUg+uwOpwunQ3uciWXXxsCclBTP3+IDeLTE0NMxBZ1yIF9uZijDidecczra3Pgr4PCrxz0kl4fYeTdSC/wTddHG2P7ydZczvyButo38cnolQc+uVzUra9f/vKXz6EvNyMiM7pERnmxM/KtJvHE9lbwBga/UvFQsCfe0v3aw56h9scohpjqLmf5gjGCzolz2Edl9bFDkA4/ID86oHfehnIDPVFXval3kB8y9fF3OAQWFCVWAI2p8fh0GJMZyY2ogszZCNBTkH9yzTFKmo/4+c9HvIpsbjxJj5042YF45dbGW9N1KF0wG2ZzOgx0IbvW4rCL+JaH/D3RxLY26hmwdRDqCTtjOeZLHVFx+LfWN/r5IYcOrFi9idVAx/ruo/+xY0+nj72AL29r+kE8wOMbmeudWsxdKmv5sFczPZfARaJT3eTm1Sx3unyQy9dbSe706Dv4/pC2/PlUS7WTy7H9h3LTD3N8JF71gHW51cN850vPm4M4wBbI9Q18fOVHDc6Q+PlCxWbbOcR76t/Cx6CANIZDvCXATy+HkL3C2Tt8Ggh4CugA8JF/aGQPZI146WaXfO0VVVNtpIZ2oZAnpLzIrdNHmsWHZnny1/jG7UeXgR1eMk0vHhkY5Z+dnpjLIZ3qQ3Q83YG/NhD00P/YHbxB/DzmI5bc+fDFx7e+9a3zLWp70gETy0PG4XZofPTBk8tVD8+c3xBPDvjIz9sdQDXLV4/FMdoDvzD2NpKnj4Vk1vjOgfOhfy+88MLxU7+gmPWvfnnAeYC44B6asLWk35qufjh/8tQ7+2CfQzHFyzZ7vXHB5ExP7XIGPnvAkiE+kJzOPAHkuMJQgcw5W30jXeCwQgtgnr5CHR7Frl72C7LkPcE2Jh/lkh7gm2tKP4O1+QgfaZAc9mDx5QDh0bUmo8uHp5ePMDZWkzv8bV6+11+Xoz7QDfTwgWxHdnzVJ8h/ftm70MVy2P1O0uXJtzFimy/2asBXHz/qczEcWgfKZUQOFupTwPPPP3/+NL+D2kc6X227JP4YExl9MpeJrx48xdNnOcjdGlmrI6KLFwE+sIN01i5bUG816704avBWrXfk+aWD+GyEehyRsesNv/GCefZPnfCCVUQFgJGzDn08oI/XYYtnIwuWPJv4EgZzsvieNMYKAPIKzM8iPhvFdzk0o83cxtA3omowIn7KR0yX2kPCwwKfH7Ua1dkl5mORH3zEXxRvkQ6/8oB6Ch0SOvoZvL38UTFPefxi8OHB4MCzU4t8XQJvFxfDBfFrABfI2+bFF1883/S5MChdl9DF601lzneXiH/9ruftf3tYn6E+1381bs/BaE3WPP7yGpPX1/asj8n0kLmzUC7id64CmfyN/LLhR2/pOgf7JQg9OfG1ucDtBBNSruhgvs0oMbAWHLpARrwOZgekJLZQOsblBb7Lp/iAB603H3MkD4eerkbZ9N5m1giKG7HTfJewQy5nB9uBErOPR3w5YJ7a3pjWbNWwh/za8NCmoq3Vx2mj+Ea2ZCCGC+HC4PnjRC6XH8r9MTEHqvj8y98FefXVV8/POy4DO/3Ad5G8kfqCQZ0uS282Y/3oUOqdNVl8VE+N9U0scwTW9UJt+TaPJ386jVebKN/ZpovyY6/6XoAckekjW/EhX6EYnZXWfMYrJ7bW6kDmW/uxTVkiGNbXxICsi8RBlwnocmx0sfrMbF5yZHv4EF/5RJLKP4JkxcpXc5QuvrWYis3PHgJYX6gYpyF3lJ18XC5PeOQgqjNyQJGnPT08qCYw8rW985ZG1bG69cyG8deG0mXbWwN8G/fVr371/G3qf/7nfz77BmIBPw6UN0+Huf6getThcLHN2XSJ9ACR6yMZPnoIckXiyDmq1/XbCOJf+Sib5bUG8+qMZ0R66IIZ45vrT/tQD9Y2lBOoWy7Fsm/OtrVe2At9QfpnZB/YPqOBIAiiUGNRBsYabV6SQRHsN6FrMLbATweSDqqB9MDYfBtMV14dkvgoPTps6YiTzfLzlX/zfCQH835Y96Tv8Pm4pMme+OrCz5/NzA+yMfqDl1/QJ7xAVl5GudtEdWaPiuMg+fr7n/7pn86XHkBPrfkVn35juPLqT/0yIrVF1tWUTdg6dg7pFzOwVyffbMjw8ltOYKRTj+zjnjPrZAiPPRt6fMtfz/DFNOot3eJA5y5f7O2pP1RstNeofpRvyF8+nynxbQSqaCgYZ81LvmK3AQgPOWDsHEZ+98BYlyB+Re8IjfJhU/x8AP2K1kB5aYSLQJYNHbLsjHt4yqnazTefnvQu3W4UHx1EPpB4YFTzfvFTb2x6bzU8efamotfPNnT4MXfZyZB4Pi6SecLywwdUMxjVhCeOOXswJo+3YINff+jyUS315mpbD8G8GMZ6hPgC/NCeiE2nHMAc9ASs5UBPTnptBH7YFZMuu36eKjadzTews69swQPXjwgess5XMnHqSefbnOx2yQpOULHxGCMHIjljlG5gA9fkswnZxdvEilFeqIbnF4pFN3vx2JNpPGJbHvibhzX97K0jINuPHkDWD77kzeuJHOmw6SMKiE/f2oigeMUpT/nQNfJL31gu8aD6EH0gzzfQtZ/W5WLeyC5/kB7fofwgH3jZFXuBVw3G9QfVs/moO7/mW3+56m021vVKXsVC5urmr31aX8b0wbh5mENnyTe4Hph82rNsXTS66kP5eaabTnEPJSGyLonmOUF4fGQH6fblQUm69QIXHPJdDqhkl79gjx/ostn4dMrJHK/GouJDsRD96jLXSNSfB6RrszRZPVtndiFdcfkiE0OubPGK+xDI2x9v0A7U1s62fnrD8hvw+Qh8AX6yh2Jnk34QozG7zWVz27jmKPvirg7UE8TP6nWB+EjHHvhTGPh7IcoPVSsZsOvhKMbqk4G52vEB39w+8yMuHy4Y8JN/dvTFvPXCfzZQwhRCCYA5OYcOjnmJkRnxyBDfinJIO3BbVLGNQMfaCOWCZ77xjKG5gpNvjMXmEJVHsqAngC92+pq+38IBu/KTf/WG/Ja7XD2ReyIi682FP2sXts1MV27p0aHLd6iXkA2wqy6ID/H54ze7JfxiNsdvzzavK+iwK44xu/jWRvbVlC865D5BeKvoCZ0ecPTooPYin0h/2fbQxEu3OjaH9RXsu4daSId9ecLpAYEJShE4R0AGqwslAkZJCO6pS8dccypMUSUN13jAzrxEjfmG5JAOH3hk67uPE/GN5WudXTZg3sbwT+4CIbWQ42uwn43o9UOwORTTmL984ecbn3zfduApCWQ9MJqDNVv+EOQrgh3p8d88GRT3inzTReLGMy4BnXwVK6QDzemYq6ufK+vNyvNDBnpVb/eNAuVYjPyJ4Tz4Ux5s8PS9WPxlY6Sfn2L1iYas3FYulrF8jWfvz+oOFQDmhKg1cNxTsgAFSd/TpB/Ws8+Obknkc8eIHV1ozAcZHTHjFydd6CmVT3oVXQ5XpJ+Mv3LurewBwldvLv5QD5cuog21Gflbn1DexkDGXm2etOnWX4diD0a+HRrxitGm03MA+cnGfHsSb/NY4CPxYe0geblCugu84oKRTTnr1TWG9dV3snjsy98cZUd3z6u+2EM9pNPLADpbnSvgA+HR00tzvvS8lwae85AtXn7v9+GjhpVU64pvTcaYY0mab4El2BPDIekvtmWvQLrZ5dOIoIKAXnN+ktUQtjW02I2bH+TLCPkN5bF6y+uSITHbPCOet5k8kPh6BGzlxNfWjrex2CBz/tmTmRvZgv6ztSYzr99kfMiHjTj5pReVSyhHIwK+oR4058sIfJi3bs5HvIUYPfzM48ldDWzqgXnnDLIpP3xrh1u91vVLXpvzwsXyzSDbcgjZQ/u89n4WKz919CClY86fNT90kBrOx0XOjJQcmgow4mcEdMnabOC45rXhbj3CKxHYxI1tFJ1Qg4z4fLDbgyE2fhtBN1/mHVKUboQHyaNkxcrfjog84NtobzKy3nRitgnrH8mNDPJXjvXHPNgTelCfe3LqtTUbsRA+FAvY00mPjjmUXwT5gNXt4cIfP+VlROVdPP6MfJAlxzPno0tinV17YOQjGZQnmb6zD8Ugp1+/qtmZ7EsstdCDjWWubz24zL0w/GpFvHKD7Ye8ofzQve7Tidv8CkLxV4chike/AioKvyL46YdExe6hSffqzwj4PZnxQ7kF83jrU6xtxOrAxoJtlHkyPvijr1YEeA588fKPzG1QMfgwz2+xjEhvkqGFy8s/f4guiMGG3+Zs0zHa0/WZPrC5Ip69VCc/fLDr4dA5WV/QhUHyBf7MkR7wiWeud+b107z48sXnv9yTW+PXs7VpH8jb+/QDu/Ig4yOYkxXTWJ5+FOr3mNlUW9/u0rMu5vk9WU4zMm5C5gWEEgPJpmtE+bTB2zyBIZ3miDxfZCW4SC/QB7p8ZwdtTnHw2e46FGfrCmQ2Ch/VvIW1z+h885Gf8inm5mTeRhfffHWT+5MGDrzN7ZDqbT8XlFd+EciD7y5EdsgDEdggOuTlEnZP8gV8kK0cGoudv9Uhaw5q2E896sm2XuYH8s1HPZJPiG9E+cqfj4veSC6MfuLnY/cNjGyAnktk1O/ORW9SMYE9f+X94F91AbxNkFGwXr3mkI0RQYX0lffGUUAJSbxDHA/yQze/Kwe84oLDUNNgZekCuXlryH81N0IbHMrV34vqgIDY+entbl088w4qXrWXGztzvWPPv7U3Gvn+4I0Anw85dgD4d4D1gz6/+Gy6WIgeeToI8p+NGFunOOIhyI5OeUH6gaxcgR3f6CFkT55fMbJrHQ+1B+TXffPWcR6NyegiseKZo/pplLcR6IhVHdVN14h/ey2cxR0xyHGBkjOCEioJ811n44bnF3kKVBT9dK3BiAfF2gKSFSc/8aA8dn3VyR8k4y/KpnzYbV/MkUOq2X5X4zN7cnWTa7hDy77mR9YOASIvlhEVT89cLLH8+URx+pkXD/FnpA9ywitH/8KSP0zc75TE5MfPJt6SLrA1uV/uWotRnV0+/vlrTtaDQjy8cjDiQbIQH9oTY73gt/wf8ueQx6dfD4ojHzr5rA7UQ8Tfc3PJ+ngHbPJTXu1L/vQ9n+JYI+su3uLspwmnNaqAgeMCCtQBQiWA6DQvyXwK3kHBI0sHnUTuaJtnjlduKFRw8SJ8kJtGdACSswE+Wxu3ZmuoiXQ1kW88a3MyBxH5G8LxywHwGsul3oH4G6dcjPzsmm4x2cjJmqyx/Byk/JP5VszF6SMtPns85LL1ZkTkRrHM2bQ/5cteTfmLrOOBObAB/HohhrnczY30zTu4D6E6+fBw4IMN1Aey9Iz5wrdfHjxqFqccq6E8jF2c8tUTMdnt5S4mm85t5+r8N2d7QMwF3E2uQVBwzvAb6V7BRkJkCjP2BOltV2x+S5oeGb+AVx7lVDw2CGqqRmyz0zW2RnRqSPp84yFrDY5vjtSiLoQvdzqRGOzJO1jx2BcTj9xaPvzoj57gmfOXPlvA29yt2cuFv3pKn165mmcnFpuAZ0/8/JcfkCP/gQzw+NRr5BDy3bocjdee8b0xqqt9kQs7OvUtPkqXXK3m9KsbkudLveYumlzpqpdOtmyu8Yzlqx5z+mSd2XjZGk+f73O5IYfNWxdsIWC6kkMcSzp9c8DXYEHZLRUH8slOwuYlTZbOxli9U9S9rqLxkhsXZMWDbFvv5tM18sHG3EGpPrZQHnC1MW4O5D1syPljny7YwEb6dBvx9Jx+POADfw9COdR/sfqYa50PRCd/9NhuL43lGcyLlV7nAU+fyg+/HDv07PHEKVY93dqL2UhHj7MHIx4/jeyBj/KA9UcHmddXwGsf2NozwBdfvB6K2akfTjyTkoMC1UwjomMt4S0WOIb0yCrGnI0Llo2RL6DPni7gN29j9kKRa1yHpVj5Nidrg6qDDdnW2nztgzVbTzv25sHa4SPjg0yN9aZDgdKn04ZY829enrup5uk3BrZiFJMMz7xc8p3++uA73sb0cb7DA/WkcXMOfGy89su6hwfaeH4OAvrFJ6t3eCBfhM8+vyF7stU14pWnfQK25UkP6IH46dMph2BNB4xitC6HfJdXD1/8/73Sd8gwZYXtGjEqOesSStcaP530ydNvXuPE7YlZsmSaYY0gfk8/fqNkNrGcQENcMDr8G4sJbAIfZOk0bxPZbFxzNvjG/by+uvIx4lWLkQ1aWSNb9efLqEd41h0UcyQGHl987mFLXiz+uxB4YNRXlyO75NZkHRzzerz1AJvsmhcb0YvIFnLOD12wFh/iZdeoPhCnBzIUB4pNlz8jXeelb2zVlT7wv2uwlifUS77xjPUOjOj2FT7aZhTAiH5boZLNnqx5hcTfTYnPh0Lb2A7JbqI1vfKCZNblYc5X/0QA//ylqwkdTOAXQb4jPjcmPSP//BmrkV+XC9Tlsz5eOeTHHOKBfNiQw9YSZQfJPTTw2VaHOeycDuowoXLmmz8HzByPLDvr4hQ3uOz4UJ76Qi+fxtUxR+WbjB55fHNIN5/xgUy8+rc+rcno734DneTOnD3qrIkB11jmKxMDz1iO1nyUL6yPO95HRQAlsG4OJY9yGOhuYDoVtz7w108otjE+X9YORwdWU7InvxZEJi8/sCfHcyD4gL0cRqB79Qd4jWRtKF/myNvFV+C+nUt+/XjSPGzsDrZ18eRgXo/pqB3xn192u2aTvw5Nvsj3r+MU069TyMu9j+FgHdEN5OWKn348wCv26prj2898J5cTArpq4IcO0MOvvvKig7JXizqyEytkj9fDBU9fzFF9z19+4tMvZ1gd83JG6d3+ZjTkON7VAG91zdOnk5yu9VUvPxLOn4YgUKxNyMalsMbXPAeYHblGkVU8Pv2esr629lbxj4H69wh9jLPGJ18qdz6A/wW5OHJYG+SS6ROenFA1ktdDPvNr3EPINrCrB2BUf3WqL7l8jOmWR7zmRnbyEI/9oodZ+ub0xcy+Oox45W1MZo0Ar8trDvVBfMQ//eowL7f2Ebbv9CKxnZ3isAE8D0D6+2UbsGFbTmDP5EKGrv2hz+fG5o8P/OoCtnyULzr/kE7O20xz2MSO8r0DOvGjlV0vwCbND7lYPr7UABuNIHuJewLTUUg6eP1J6vT9a1Hi+2Uqub/r5WL5KOci+L82GpHG8Ln5Fa86y2VrJROznJGLa5SDN8P+gVU2i3yII4Ye8BdPrA5N+YhVv/AAr14DPh79YF58MTbO8tji92Qnt8a3Tr624jrQ1vHo8mcsbihO+Vqb8wliA/76AzwEfER6kp9i46eLR4b0E/jWJzpiJmcH5QPs6TYvn3phn8Be82t/5MRfe4XYPfXHqtqoEuSgADmgWyPgOue4Jwt/rflIt5E/fvmk56MeHjs2RgkjB5gMuVDW7IqlaE8vF4t/PL9o7QlORtcl9D8ccNm6hOTAn3zkUk/44lv++pE8HbZGD4xqlTc+fbkb16c5P5CMfzZGa3OxUTWWXzngpWcUN+SHrp7pbTr8kAU6fODrVw+hdPkqLvCDx2a/kKkOdka10cXnB8kF6EN1kAE+ssbvMEN+YXtj5McYxCbjY+uzH0Z+yfIDjXLkr3rBfPWrCY9PsegY9QQf0bn9zWgwhxqcEhhX3hwEBH7ilzCYs1F4OtlIkLykKg7fSN/cqHi6/RsLdFH5m5NroI2vBhCTHfJWc9GMflfUFxd0ar55eZtrHEpernJqU8Tk38iWXb6CuXyTm5d/KCYd9vzls80mr0f0wRzoIbki/vsVCko/33SM+HQ7oHj0t/Zs8UHM9gHYVR//emOdL3I8YMOebv4AX5zq4AeBMX1+jXjyYyNOc3zx5G3EIytX9oCPVw7lSh4fjw+ovuz5t/bQLtdkbG//fzJYY86ROcVo+UjD8AEf8DQPrS96+VfYbrw3QXbeUvR85LPhaP1qlIuB77WP+Lf2cc3a3CFUsCZUPL/W5dJBLS8wkreWK7AHumxA3D56uGDekPTw2NHjC9Y/IjPywR7My4cfG1sueB0SPHWIkT/yDlP10dUrumz5pGvuo64vbfozi+b09d+h0kP6csMPYvDNz1VmTlbORrzqg/oJdJE48uRbbvKVA8Ivd7YddjBH+q4Of1zKA9S/rKw+dSH24Jw5I/KqTyA/+YbyQuWvH63bf2uo/yif8c7/M3qZCqlpBd3gdNOrwREYl19zAB/xUbLZ4fNLhsemjzj5SG4sRhfMiJ/PamK3Pl0qoL//dh5ZTdL83nCayZaezbT5Hg74fUS0adYdVnwfaR0QoJNvEK9e1I/yrS9GPHnJR0yx8fHKpUNnbiTHA/b1DL+Hmpit+SoGkLFBIJf6Ci5i+Scrd2s9K5588m/ukIq5+e6fqXS5+fNGwNsL5gEmNn09doHqr73MJxLfmq/q4R/ZRyQneupGZM3pk1cjomtfyc3jLSWDesPH41dfffX2v04CghSAUQ4ZxIsP3eqcGjucmqRw8+zzp6nmmzgo0Ia0Eck1pyZoPHsbbs3GSK5hYNyYNY4euMR82KSaTm7uwthUuuQaDDZfbDw58kvGzlM0mYvXhleXWoAuwtenYoJ4bXh1gD6yNyJyazqIfTWKGXauV3TlLWaXxYjWHp9/8/YA9ETf1FaOXQiEb6SHXBjkcnjbGF0YYxdGzGKx1UO++dKPemUedfnY2EMPTGNkD4xs6fMFarc3+OLiG9UhB7rmRntDXww8MKaPLy8jfWOED6fX3mQUllLiSKB4xhA/HmcgebolKHENaRMhO02gK2kUn43iy6FC+LZGGkwXnz6ZxpKFLRTo9daRj7eNC1LT8NnYYAdE3vFtInSY/A8b+JUDX2z6qMgnfXrsy5+OObk1e2s+6FVPByB9PAfVml616h95vWVvbA/ylQ2feOnzIUdz4J+OPrUH5F1s9blQ+OTW8urn0C4UysfVpzxAHupnh6zth7+Cgu8i6zvqoSVvc+SCsuO7Pe1SgZqLD11ccvpk6qAnNl/k9YJfup0JOeGh0L6xIzdaA1t2Zw+ePHnyZoYpBIolwaBDwJmxIIrPlq/j+M4WX8MVU7JkwZxdhQE9fitS8unlW3y+AU/TakQ5anj5mRfH/8FEPvmnY2zNN7knrNyBnRjQgbvmzL+LWZx4CPIrTrmni5dutdNHcgK24gLfaiwHNnSNxXCIjHToAp61TwR4Dip9BxCRO2wdTvbksOsOem9w/TVHfBvx5KlW6/TlWL72S1wXF88lY8+nXhjpdAYa2fbR3Jpf+yMmsN36q0nu+SMzktOnQ47wxBC/80he360b6Rn5A3zAa+/OLmW0EAh/lemkV3C0CWmqhpoLTA7mJaZgyBZfPDoKNkcK7gmTf3zz1t4YmswHW/Gzx9N8zfQlin/DnC9+XaD+EmTfMuKXM181sE2TS/mVlzk4LHjBGug3Vt/2JL9G+RpRfcmGTv7JQL7Vk0+1Qn1qzg+i35xcv5A+OuT6hDyMGu2nN4t/B95Bpt8BtW6O5MyvfMzFU08x47OpJ+WpDqgWMEd80y8OYpetOB5C9c7ILhuwFo/M/vRznpFNMM+Wvnz5wLcG8utYXmBkf+bnv/eQMIewY0FyWGEOuflTDu/nqA0056Om2LTeDPlkh29MT9NsRgcH6Cu0DTHXMDHMyZG1GA4He7z8Ohhi8aHJePRruidk/jtAnrZkDjpdPLX1dLYBarQ27+MMnk1lg/iVr1yt91CoF9+abHuG+JZ7/wdRF8MoDyNSs9pAXnwUywjmkF81GtWE7GsHSl5dqmrMrj6jbBG9+oSyU3v8auTHCOKi1mzKH/AjdmTm5Z8tfXmIZ47IQT2+NPFwtZ96bj/kA3xUFx/GZNVR7nzRRUAG7JqT3S6ZBYFkcg54qELBmn5NKRC+wtI3QroVauQf5bfNQZIn0zwbzE/5LJ9fujaOvTV/5uBAJjc6+N5YdPihp8n4LlFyP2t0EZCayCI5eqr7v1T6v1L6+YyvYpGz21E8dUR0809mHdFHkL6Lg/RR/b1RjN5A9ZQctp+tgU61k5WDuFBu5PqZDzrlki8x6VQbPfP0i1MsKF6+QjZdDGtzufCjr9lak2Vnr+jll9wczFsXE3UmyOLl26iu6sxXtaQPOyJ2V5zfk3VRcmrcC2FNnk5ydhFeyQjWppv3pGFv1JRe0XTyba7wGsyvUUPIEHiiO2DiiWvNr1h4ZNXEFz49c5eqN5U8kKeaS1bscmJjpBuPX7F8jPK/fvV/q+x/AysP8VH6/EWAh9KTG93WclhUO5suFujp7gMdvq72wC/QK1411V9jOaZjLa44IBYUKxvycsezzoYuImMTz7w1iEMH8UUnWIuDZ9w8IX/x+QK89QP1bGV4bKyNiBxVB9/J2EeBbqCzePzyyy+/WZJgLEhOk7UGwUvSaJ1ebxnN6SA7gHiaKGG6+GxtPthsOuT4bRzEq+h8sfWEp8tnOdHnv49gSFPI88Uerzj4Lr+Dwi5buvXD4RbPGwy5bN4k4PJmA9XMX7mhHhDQRuFDMdK1Zku/C+4jIT6QyZtcb9RhjofIsyuGvPDSJ6s+VI/JzPHY8qcWtl326jJCPq3zCckBr/rpesCx41dt6fKLX97xjX36IFNPDx1rxL+xftQTtdLlA89Iz1gfzdH2gqxajOTAdteBXfrPcFpTjIjhBsyRESQJ1i6Gw8wO2OGzRYIprNEmgcYAHqIbzPFKXgywCSikk09gq/l48fmIR26UJxit1UBG1yWq/pX3xlMfUrNvw/yM5P8f7W3m5yS1OizFAHniFyN7vPwha/HMs+tCgHHn9qK+0O2wQT7AXFxUX9VkLk/y5mTy5AdfntZo53SjaiqOEV8t1g8RX0a+jPlBIL6ckttvY7mqec8Oe/PqN0/PWE6gT52fBdtyMKeDupjZGCH7cmqOxKf3TMYVqHAoUbyM8ehb06frAph7A1jT4dwcv2SsHVDryAEF+hrRE8lTkhwP+KlgF6AD7OPTFXxFwE6+/NpwPnoKa4S8xFEnOcIDfPaoPhihtyTIW15kLln++52PmPmRFz2EX6zyBXOx0pWneHpt7q/u+Cfe/PEh5Kmen41ntOajtTlf+leeUIxi1ntgC3yh+mUO1QU9IKyN6mgUP9trjfJJ1xyMcsoejOJl25qP8qSvH8ZATlcOyaF+AR3gZ3nFlvv6hGI2pgvFOm8yMFacBArESCDEADlcrY2C0+0bG2Myo0KM+acrnk12QJOJa0yvjTbSt4EuagfOXAyoSCh3dmKzpcevmOIBPrJus8x7W/EB7KzbELodSNAP+bBXT/X1Bq4P+bTmI7/VIN96nw7wlf7+qgHoy0UOSO5QXUY6jcUCcn6r0xzhi1XvrOWErMnk0IVCQFZ/oD7kT2w5pG+kU98jeuzK1RzEY6+vRnHKB4zp8gn84VcXu/TKp3z1Hw9tLlFo3T7xUa3p8VkOt0tGSZAMKeUgY1SCiE7Js3eAjTYHyNi3WfkHa3bN6QE5P3iauklD+QB7vtOBmoPo2hA5O3zWHgLs8aDmlDN9Dwm6XeZ04/VVf3NfCfOvvn0AqWU3FNSBZ13vqmcvDxkdayQPMauNTD5GueeHb/zs5bDzbEHtyZuDNfCVLTv50cNXq5yKi8zFrmZUf/nIH+ADfXawvuoFfXlZJzfi8WeOyoW+PTAP5V/doGflUn7JjcnyYxQvX0DH3KgOSLZ6t7+0KZDA1hqYgw4ZI44qgD6wSY6n+DYr4PuI12/z+U6fvRHhBz7w9sBYg7Uc2+g2Vl7sxKAfzxyxa/O2yVD8agnF5IdfxIdfZPe3rj/88MNH77zzzrkE2dPvTVv+obyADPEb6IpbH+myUS8Z2h7nC7ItX2N2QTw6iN94wK+5niL2K0PlUM75vtbAtv6Vi3irxzc+lHf+wTpecznwUS7ljPgwZh/WH2SXr/KDfCXHj4dAHfXu/4fzFT5HDp3Dc5h3a0locuugiF3vvIOwzbIuRge8gttIMpcwW3rsdzOywzOnuyT25t8lQuRBvGqL743kQvSmIDdGIG7fYrL1sHGx3nrrrfMm87s1f3KELzHpsZETf/LjKxnkq37Ih009oVsP6jPdJaDXvBHwQ/YLPP7ZmBfzIV8Bjw6Sv5rybW2+fQN10e9Q0kPWRuDXvH7R5yPd+mCuPyEdNqh8jJ0J8vKhg99+gFiheb6sxa6GZNHaLrKH050aLPAaGwUoaet+mCcv2X6uAmO+NIOuBNl2APNHrgk+Hi4vH2z8KQboQuDVVDouh1jADolp7NLt4WW7b7/yxC8XtvkHo7zrCbkL51L+4z/+43mr8VEu+URgzc4Y+BAzJC+mddQhaaRnRCCvDmEju2zk0Tpk3z7So1OuZPWcDJ+f5HqYfnzErn7ppzU9PvQWslukU66ILaz/8lx5Mrz2KTgLUF83Lh4bPvMFeKF5dvT4T391iwHpkd/eZJjd2E3EXEORpimYXoml68nOj6J860eHvp9ZHD76YuGxEce6puIZuxB8W5eTOX1Exo6vCisXuiheuZsDfReEH+AHHIC+fge+yKqzHEFO7NXlgn3jG984bzOoPjHKjz1iww/wmwwa5Qpsi82uPrHZg0NOrx7VJ7Jiydc8HfqNcuWv3NjhsZFLfdg42ZjTs0bs84H0lN96Ug1su3DVQA+M9QLoA3uyakln66x3m0u5G9kjNpAPvO0Jfj7ljiAZ//nsbJkXF+SJTs6vvPLK7ZfRCq+ReBkbyYwMoWQdJjJ67EKJVGj6eC5e8cgUcZK5801uXrKNbBG/3pzInG65yd1cHt645AgfyiM7KK6Pq0Y63rjJ+JODudHDhD9zuppcDUCORx/xSya/6henWHSgGGAkNzqQfMqZbfJ6AW0+G2O6fBqT6Qtde8YvHtCrv3zTL4dyLr90EGwv2//6szbmYN3ljec8pONBV57J5Qp0yPjoIz4dPDXJd/e4/tBhS2ZUD//tGz1z/Hj1jB65EW/zpmfOBkGxEHvr85c2TRBHNYzCOo2/mwNkHcQOFzk79gXro6Jk6PJTIc3zV7ySJcsXv6Cp1unmC7Kl25yezTCCubhqbi3H/Fib579R3HzkM/9bM7IJ9GH7SMcI9Mxbg5zSNepZ9nJDbToUk54xXr0qn/Krd/ynXw6oPTbPR+ue3P2IgLf++e48oGohp19f2RnJXLL8eCjFB/NygOYuGDs1i9nvTOXOlj9UfESXvy65sT5eqfhGOkt6gU+PH3N1ZaOO+nXWFFs04nEW8DlB3fIcCtIfmlXgHtySKQl+yG2QOfkmk50k8djxi8JuIOoAImtwWbKxAR2qahWztXkbnz398kJ0xYG+oKGP1CMnYE+GZwQHobqqqfquRMZncuNV1zpf9Vu+oK8bW9z1oSYxyhO/NV2x9U2t1ubsoDGdcq02ayBzRvjAq49GWN+N+UL5eWjcOZ+ofMqf//IiV6PY1um4XD0s8NggfqpTDLJGBOTxoLqgvTGS83/W/lPyhDVeULAZDhHnNhAKkB1ngtEzl2xY3+b80G2TS9rayJ4fMn76eQ5Kmk2Eh8zXro98bK3TE5tu+Wwt5Z9OkFsXFcgcJHz6LlIXmw5dMn7adFS+Ym4Mo/gRNEJ6bMqhuT2Rt3U8+o3Fzh+d4iyf7vqI15i+eOTZgTmemosJ63/PBN1IvPwXI5t8WrPXN/L6Vy6QrPit80+vEe3FWt949aG8sl3/QCd/5otsjjyHwBhVFOSgC2ZekMY2WaLpsSPf4mtidngVyAco0sWiU175zta6S8Qn2jmf/rBuvzC2ZkfGfw3A9/MOnkuDZ1N7EudTbCBvXhxrNlCMZN56YtGJBx0c+nhiZQdbq5jNEV0jVIN1/ld3sWtzfvJdP/jQ22vMcjXKrRzogTEbcj7Khy7SU+tqAzoI8kUO+Oyss6m+YN45y74cjX0szK7zlM0V+QDycisOrE7IL6xeurd/Ei6HAb9XKpinw5FCcm6kxwa/xlZsRVojczx2LiWdDjn0gz7dDmoEbFxEFyhfYPQW8bGpPMjbZKOY4qnHvBroQfmwh/UvPpnRRUlH3tb8y6vNxeM/vfzm0xiR8VNO5ggf6FR//Gz5YkOeX8iXPMjYxQe6xYF8lf/mWx508Yz1t/qM7OxffWjUf/vVuLZ88b/xkuHVR3vTHoBY0JoN/0ZgL7ZYdPNtXs3FtUbk9RnYAJkcirU6Aa/YUIzz7aLEMoYcS7CPYGAsmTaPnaQ7ZGT5Sk9gcmMFaRgy7wK0plOsjYn4o9sG4LUJ5n4AZsMniIno93GwzaHXzzF4/AJfQNelZVdsIzv61mxDueTLmg99zE4effSUYzVHauLXWH/pZcsfvpzIrMmQOVtjsaPqEI8OH2zoAV/yFgOfXjHJELDD44Mcyjfw43Lpgdq7dC6XOVKTdQ9KyA+ZURw+qsE6f3SsxZKr+uiwUxN5+2leX9ggPGj/1EKnuotpXh+M9Qu2x0CuP4gvoPP4hRdeOF/hU0hg5JTCOq2RBVVgAdgch3cjnrnC6eCVoAQUbw01C4pHn21rEDsf+Uea0iWwAXz1pEwfKl4+fLEhN0f8yIWcTflZZ9cvxuGac37khuqfWvg1j8cfXTKjWOWajpEePn/qyZZdsdVRP/Jh1INqQf0DN+zLsdwCu/WfX2syoI/6tEBmDNkCPl1jOtc+yZHMPBkeO/vZ6GKpyWXtAtPLl7hdYJRtPZA/nnl51C8oH/1kA1sLXUSnfIEfevwszzq6/buLMSgewZ0hp40llSOBcmZsXuHmDi59PH6M+XKJbBSe5pmzgQ7hxjOP8CqMro+Ue6johHRATDnhsce3Ftvv1fjtUHgjIj4dUD6zBTrsUTmRyZsNn2LILV165KjelKs5Itsa+KgXDgA/eBEZ1Ftgb62W1e0AiWNNXx75yZ4OH1sruZEM1MVODGDLL7Dz83D6+ObrD8+aDyiePdJ3ueqhke/mPXzZ41ejOqAc5BvPWG1sxXdJ2RV3ZflgU6zyxEPZ5lc8vGTpHcqQoMKhA4jfRuKRW2se8nTI2QZN19O/YtOx1hxPJP6TAzv+6Rrp0yluOXYpEV/4GoTajPI04nvCiYXKn6waNb74fLq4YK5O+uLImz8Qh/32SXyg65tHPvGSq00sqAZEjuqhOR/1zYj4Ey+d9GH1zIPcszWyN1ZT+aPqkWN50kGAp/58Ahnb+kxmni99EhvpvxHI2JZrebcuNzb5Kg/x1g7kJnbIJp/pl8MSGO2VkU8j+3pTTLJiwjVGdPRaMF4oBGlUMsmnX2IlAXTjsanRAikK8PlNzpeLuDqAb1088mzBpmloF0BM+i4Gfcg+v+KRewrT58sl8FdbuqhtULpGsmIlp+uJq74+htQL8/T4uD6BI/VE8eh0OM3JoB4bySNxtnfmdHYM1ZjPRn6KXT7qNa4+OViruRzoyAO/NZizUbtPA/plr/WjWHSguRyNiE9kXj4IT4xy29hQ78rXWP/oQTLAs9ZD/Sr/bCB/2YlFj759N2Z/xeEwzIDjTQjhJ2szjR0eI2RXMnxqjjk/bCQUrPNf8sVkmx1KXi7+rODamcvDG66Y8sEHeYrXU1Ye5dIP5XTFWsgD7abTqw8gHh08cenSSc+I32aI0QjFqNb1fd2PDlL6sJfHGMQQE88oB7x0yot/vA4vxF87EMO8dbZRl+EKMn6MxY1fjdXHhxHRQy51MbJvZAv65gHqMuOXh3m42qdjjq5y9Uf815P2NV38nYfjr6dAqDhCYHSVAzl+o8B81RjYZDsI5sn2MkC2ZHSTlwuUm6Yv8i+PwI9LpyH44tDx8wJ9+eLJv7/Cz3/10jUXq7yBL+RiQjm6rPzSjejll1762dAnB/rp1FuyasND+SrPYoF6yNXGFrFFdLLJP31U7PqRf2vgxzpiK06547UnnQNIl15nDUE+motJj5/I2qcNPehhyA/99jQf9YD/cmiejXX1wuZEXo+2V+JYk9ef9Nsv/HpEt/6h869V5ZBgDUPFX1GgbForLl6bpBgHHjZeh9BFqFmQr9Vpntyc3TYK6O1og8z5A3rebPmQzxK+vBHfdNjmH/IVHAgx5ONLFPl6s6ZnVB9/xZGDURzy4hirtZhGVE385DseiIHko+7sxbj2OLvNK59ba3HLga7c04X81msj1E9juRWvGBv7Wl8y/WzNHg9Vo9rqIzn9dNoHtnTo1w/yeOVpLJfmfIbsy7V90hOIX/xzyXIODCBHRkYR4NO3zlFJSChZthrBhk78/KcvLj3z/OQf8mnUHHL2Ph60odbIWmM12pqNeEYkDz6ywUu//GocOd142QdzfA2uPmsjgmrkn45Yn//85x+98MILj5599tnbP43tY454fSEkJv38OiRq44+sXPOJXzx69LsMavCQSwfYyal+Vi8YyeVdLHM+k7PJ387puuT08eoZgnoBYtenal4/5QFkYM0u//g9sLLPJ5h3OfNp3Zx+Np2dcgnm/oZAfrNF4trz+BG+PG9vsiARDiOv5+YZQ7yKbPPZayDeosJAPH7wwJxdvvDNs8GrKWzpOoiKdslsKNAjKwdjDWBfI4zlm3++e/rbMGtzuuUmH37NgQ6C8squ2C6Otble9sa76/t548lfHf5JORdOLv6GdTWLRZ+/8ifjD+RkHdFjJ896Rod+DwKER4YvBlvr0Hx911NjtmLgbZ7myBwvGbCFZNmAGBAf5MlerHI0WuuHnuI5zJBMnGyX8OwHPblDMjxyvuSUL/6N5ZmMrhEt6JIhOZ6dKgghMOK4JCpsnZnT58TcYTJ3iEo4vx2OIMmN2fqaHJ65+GDNr7W5ZvU3AAI5G74cKnNya7mVd3EQXg0k65IAWxspXjnSR2TnSXUfg40x3TZaLW1UqG94mw8bMvPAl3W664csff4gv2IiOZHnp34CHuAVE4+PPYxGRJaNfiJytD8vpbMje6AjXusdV89YbL3tnGS7fYD0y6E6szfi6xdbI5g7K73B6F59sysHfut5czAn17dyuPf1kTMjJjBGkjKSbcKwa3bpIMkmN2bD1wJfQkCPj5Lnw7rC0gE6LrW421Sg05cdXTIwZ0ePjD3/5ogM4dG5b86xR/GKA+Tyx+uNnw1efDoOoxz6P6fIMV1x1evr7b1keIEuJEPbV7m1Trfeq89Y/xrzkZ3YCPQUrM2rky7/8aH+lwOZOf9i1Qt6bMuPHIoP5Ua/cXOMnx8+kDlbMcSG8nrItr22D/oc2aN0Ivz0rLd//PDP97Wv8jg1FxjMc0LIAYISZpiesTeXEXz8EYSPdNq8igd8JJlNHK9G1Rzz7PHKBeGtPdBNZoQukmYZe3Kxy5YfMvmDORkbY/mY80s/XrYRH/LwKwM6PeXbrP18z5Z+cQM7MvrbU1RPUG8TY5ca5AH1jr2RLh/8W2dnpEtunf9sjPUTWhvp5Q8lh2zENG9dT7fuert+ssm/EeS0us07i9aN+QJrceqH+HKDYtDBq4f4zhBd+wE9eOoTArr5h/MzWU+6qE0s8AYFIxu8+KhmmRcgGYL0k/Ozuo3XhNmt//I0ajaZhrQ24qXn7YGfjbjm/HaArDugIC7Cz7ZLBMaazg+feHShfwKPTEyw9vOX/1caPv3swMdfvwN0yNnog5z4dHj6Otscr9xd5mrgF/gsbnXUa7BurH/l07oHTDJoz+gYUQ+sfEH+q58dsiYrNyNiH/IF+SsWPj/GzgkdpDf45cavHhUjPgK51Ddyc2P+6bFPz7pPQWLRLWZ+zSM9O38K34IyBkec4tVMPPOKwDNPbx3zES+9ko+XvjGZIthWECLLnr45Pp3i88HOCPK8Nt4B6GNAf8yJT/ZITcb8VDdb4C8f8egCXnk3j9oMNpu3/xMMmTk9Y73TC/+OY38XTux6YS4vukC/p2q5kZvjq8Mcj317GPghl0t/gLi5Ny2ZkR0eMu8Xvr64MbLDE1NO1WxOP6JXD6zLobl4bOr95hq2dnO9MdZPMKo3ooNXv8zx9JrcyIe4+PTqi3k+gG528cvfaL17dPz+zd/8za9LVvACelJqnI1FJe5AggTYFGg3kz3SUCN7KHh21oH/DhE7/s2LB/kHxcuVXX40kC1qLa8aWy1ygOrls3pDTye+5EvPIaG7/vHoanC18Wu9l0Q91vh//dd/fQ6oGqyNqPz+4R/+4bzNqo/f+tpazeTFJReHn+oK/kUtaz/zFSf4GVENbMDIF//1dX2b09EDa37N0zWPyqO1vQDfDOPzCXwiPATG+MXhjw1Sd9DXagO6HlLlS5+th4Q87Vd+kNzspT7yyx6Pfev0+GPPjzl5uvnD2z4+fvHFF2//kE4gsBGbpFEwMk6MCOhJEOgCWcmlS6dEzDsc0CjhHbMlT0f84oWNp8DssjX6SAXrK5mRTz7KK1k14BvBXJxi2aRsXFYjX8gFpkPXm8HvyNSA2BUDOfD9L5hcTAeTHj5dlC1ZvTemm182eA5c+ZJVn7gOpwvfRSNjQ1Yt+PyJgQ94jcVl20ifjF91GNmT0+e3mvARXms+4suDzfrHo+ucNqdTXmBO31gu9KAY0Jg+1B+jPSSzNm78crK++qRvPD+T5RTWMWMbD3iIEWcdvIgsXnMj0F+9UOK9NdhoWnNyxCb7fDRPD49dTxWIh8zptu6pBF1oNePFt2mhOGzz0zrQlxOekZyu+uSkn/4Pnf7PnG1+9sXFdyn8i8Rk7GwmXbLi5q+1ufj4HTbE1psDOoigVrD2Nitf9ubAJ6Jb/XolplzrA33rzgy9ci/PasOvng5p+bqM3jbJ8I14LiDKrzl/4MywyU8xig34UJ+hfKrXHOFXL916gm+kQ5Yc6ACZOSJn8/i55557M2UjpRKxrpHBuqDZFRiyBxtSAXTZkePln05++M4vVCyb4moeFNdYzHwA2ZIDQI/v1tnshSPPR3nll/2iXMq3TeafzJzv+uBJ6oL5/5lZrz8x5ITvzeeS4e3Bybd562SIDPCqT974DjByOPEdTHxvMpcsf+u3dT4Q23TigRrxF9bkdIGfDna8DiTCM2bTfusBys68t564Pi7S1d9rbuWAwJquPCAZm8haneUKrdXQHKz5yy/b1oi/u/EjJ5sEcITXxl/lWwgIRmYE9hCPXgki/NVZv0gj8wXZAd3Nh160cdJpzq96jJpUDeRdCmsbR89BLAdxtpnp8iPXmk7GFz1kvj7ols+V8On69pE/Hy0dnC4IW091vJ7k5ogswk8mH5fat5nG/vgWiFVuoGZQ2xV48pdn9Vdro9hgDvWqOajR3AjNjXLRe775MPJZX8hADvYGAT28YjTqAVsjf+VIH99IF09P6heeeTb1sn2qpvKzzldzlK+PsrlDClsk5LBkWoNEFdrmSCBs0fRKsIaZX+1OQvc2dOg2xzdCtka85GCUI3k8UBd/qB9cgZ568aqlGs35xtcPjbYZNbT4XQCbgWfEcxH42rwhWyOSk/yKJY6fk8QHI53f2Lw7AnbJ48snXjmBOGKQoWI2R+LRQ3yxReJWJ7876o84al4ZmANbqC6xvIXKAYlJ7m1utC9+PkXkdOn4CNz/B69zieQhrpG9sfx6MNHbvaCPzPW+PKHeZUPevgK/Gx/lq56en8kKKCkCoNhGgMIgY/JFfOAnn0YywfER5MNIJ9vsrNlJEuKzwVOcnOhVcL5sBp7miNcmF6PDQ2bOZnPQtDaTbTLz/lSGuQNg9HFLXuvH2kFxOOhZ26DPfOYzt49n+e7wgHV9YmtUCzk9cmD/EOih/LSWg7yQvBxuOSFvNzpQPh1SPaBjzBfihx4d83rKd/UWi07x2RiBn3IsDjnwJRcjfVTN+HStjfoqX3O9wjeyMXYWyNnShfRQa/HpsW0E9unJtxzKEfLLBp/+ybEvPiCHjBUfNiDjeDUW8PFQG0GWvnn6JVaDzY2wfsglmn58lJ68QnmTZbOHowa2RuR0q9dczGTFQpqo2XQdHnrlQO7gsnGg+qWxEY8O8rHNRc2muuRWTtXgCxBrKE+6YlvT6/DyZ22O2NHPH3my3gz4avBkBvr1iH9zOkhMa/Hk3M9Bmx89bxhyoINHBv2Oks3Wu7UhczDGr1/NkcslloeiNRSbnrryKQ+x7CEd6/iBDzw5IvGaX/3wsfkBXrkhschufwo/xRxT4iweqgDzHfGTQT6S82W+yYmXvPnKwTzb+KjcjGzJrj6McjDPthprGrTB6YBxG2sO+euQ05ODA+NAoebQ4TLScxg+/elP3z5SZcuffNt4fs19lf+DH/zgdpH4MU8fb/Nmwx8io5MtWf75ccnKX1545UuPbX6yB/H4RIBvzrYY6wf4Kk+y7b8xWfkY47H1YEuPfPXlTp4vvtMX3zp/bMG6vWzEKwb7ZPguizzEwi9mvUPrM3/GU8/f/d3f3fm+/+x4x5AYIZhTvqKmLbLlyzyd/JrbNIkAPrQRUJHGUPJ45umwr4kbO156ZIGMj17rNtyFoAf4cmSjcfQ3f8Q+vkYjNj0hxea3fM0RH77QeP31188XEG2cC+ObRGv6baRL4H++/v777x9f/JaL+Ea8emIEscyj+gH0gJ9+WSuen//w8lOdkE29A/XSkUOw5sOIuqBipGtdL/IbrMWAfPCH/i/wzye9+tKegLddD4Ri1he6a4eP6BnlUN3lA2KWG11kv/gA/PzA4ydPnpyfyVKGHOK3JjOmex0LkA/IJqSf38WV37xx84HNMb+gKeULGk4P8FAbE9KtBqCDzzZ/bQqIRwfPt4DmYpVHPuWTnsvlTdbHHLoO+14kIxk7b7IO0BIYyRDdZOYrB/469PVHruVcTGt25dJB3dxA3siDoYcDogN88aNmhJ+ONXnxkrWWnzjs8cut2MBH/oAsH+oprgdIsvzxT6cc6FWDfTEi/GIaEZ4c9dXF1R8fgT0ofUzG66O4uQc42e3PLkLJlCQY8aEEUAm0voLP+M1b71gTQPEhvvhygt2sa541ApVzMn6tyeSSHp414i9e8fKFNDZ/xt0YbyjgR2PLLXt8I73eYng23B958v+dZsOXjSP37aSNKqbNygZPbKQn1UMegZG8+otrjazLj70c1q9YdPDp0GUnx+ZA35pu63oIG4NOvvGBPjkK7MuXPt38GlG1y4Pe1kSGIPt4zZPxsTmoTxyXxX7aBw9Dcw8+32q6XHjInA25sUtoPL3yJuNwqcAVXRKgOdYhPl58RfATj598W2cD5nhsjOkAHtBB1tmWJ8KzhuLlIz4duSezbkTx6aNi2TSbR9YhCmI7/DbDyE6MZOz44Mvc33zum0hg46Oii2ZD2OznezGtkY0UxxzKNx0jHlt5mItJZk1eLsYeGvj5w6PrYKQPeObp9MQHvIDX+cje6MBBF4v/9OjwX08WfOPXR7XUIzx5yCc+3fzwCfRC+fHrz4Z2MfTVm8iF+eEPf3h67W9DdIlcKjp49Hpr2T/x+ah31WWs/vMzmQQwFxKpqcaSVgRDayNwFh/yhR/yl04+8CB/JYY0qKYUI32w1lw68mSjcLx843c5+EDWRrpA31rz+Cx/fGQT8elorjjeNPzTxRfPSL+Gk1uzFfP5558/X+HzB+L7qOh/8A7ecv0ux0fQahfzvffeO0/RaiofMK9fm0MgS99cbtng5ae5GLB7gsdG7vio2oulxuZ02eQD0TfKs3wCHt2NrQ5wiNszyC8ffNKzjlweui6GOd9G/aYvx9blVt7srPmJj2dtZL+gU17yaSxH5+Rjf/u3f/vrlNYArBkUkMwIzcnagPSMUBOaw9qXSL7oxgMbGh/46MCH9KMabM6OPR08G1WuxhoNxSZjszll2+Xg28b11TcdPLblQN/lyKdL89JLL53fSRXfE9ObzAWi2yUj85R2eKzF/+Y3v3n7o1bsEZAhh6Ene/nKC8mVfyM5H/Kk10G2ZmMEfETHIWcrL8SH+NUN5PyiLqIDZs2GLjsx9Jw+kC+vvEAMa7Z45sn59IYhA77VSA782QdrMcoVsV3ddMRnx791l5cfNubxgB6/9aJ9oYvg9NAly4jjCgsp57BgOTMvAHvIPlvr9QOCA1t2KBngO2Calz82NrB4+WVrzl6TNn6+0Sn4TkczHQC+6ZcD9FGIDHXA8MWuZgejHIprMxZ02SJ/MPi55547fyxKLLrIxxF/fwzE8Ds0vuWKzNl/8MEH52c3c3Gh+supuunIKV764uI7YM2ROPTY4fOXPltrevoE9Dp49auazOUc6PJNDsZiGNeWr2rQe/GsyYx45nKyL3jGciNflE8+IV1knpyunMqrWoO1utKj0/5bF0MvyXafnvoKP3BIaZEzpJicZWvEY0tnQV7ATchckcC+Of76KQb/4LDjheKzb0NATLkmM6qLXxsqBn0ol/Lkg60DCQ6/i+niu1BQnmz4oc8O1T865n4e85c1xaXLhh8/A3z/+98/NvwjOuTZ0qfnyW2ji6GezReBPrEFturih356iB5/7beRbrZ8I7x6ox/kfLFNtz4BPfLyN28/249GefBt3P6Zs+mBYA3qyc6I6AVrccirx7waIP+dYWsgz58xW/7Ede6M1Zw/ursP/CI8uueX0TnKKTC8JmHemH7rHTc51BwagV6buHKEx18x4hk3L1QzQfPSK29IXuEo/x0wvMA2uXhGF4CuGGQOQIe4OtbOHN/mIIeSTBwXib0fwL3NOlTl12EWzxcjLlg557e1uRytoVyAvPzZmSN+5ZNOlxe/epB1MdaveoBNBzY7Y5ch8sbxUPFzkrl6+lIB4fmZ08/FdPqih292xnpkFJdfo3h7MeLjQXK8sPZI7/IB+SLTg7VNh7wRD/FzpfP/J5O0RY4bNYws5BwKasQvUfMopBNPMcUxbwPT42ebQjcit4GhxqyuDYc2pWLJjB2QZPmmb8QHMliZ2OZGJO82ofzx+DAGhzjqkPsZCxXPAeNTfvwY6XXJxK9X5NVdPGu+y8PIphrpyd3aPJ4xP0jMegN8tS7X4ssXj72L4uGgDhfIJZG3t3AXCL+L1EdsdsYeWn1S4F9u1SYGGMvDPD5sTqtTjvlJbl4MczUm3/oBz/zKZ2/+/9q4F9RWYiCIogGvw3vx/vdkiI/gmkK4oFGru/ojzSgz9suLkbSnbK7H4/Nh/PzP6IwFQU1BtsbsICnw3Xn4NLfx/ER+fpsC5gTcDOCmdBHKXXw3PT5dHuIGARuRdHMXS69+9eK60Gz5xbDTWwuB6qm//fA7IPzyWJ+avr439nnQHzH1tbA4gmfu1dSTzpck+F4n8UE+F86ojvpq4umTrb0guHLTAR83vzzxxEP7UH4jHlsHwkHwtDHv8GSj47CziTdaA7t5e1x982zqG/FA3a6BHBsrr7kcxeFbY30TvvYY2nPrjocDG8MnN646bPHY8PiDfGDf+HHPv5OVpCDgLPEWqSiwgZhi4wd6MTWOa55e7vzbg02pcahm8Y2BbpMtkq/88Ug5Vm8NoZr6Ageji+0C1i90kUCO9GDu0Dhk1oPj5pTL2GsR+MnvkPkM50sSfK+UbqbWhFvNXWNPaLYusnV03ej1Z+5AWFOiljr64Wej91RyaDZGr8UZi8lWbbqadH0Zrb19sh7z+PQER4yc5vq3Pmh9uyfx5BFbjWxyZRcfz9gbxPq71rB7TeqjvHqpbxL//I0PigZJgZpmhxoskJ6vhmoExxxwajZb/OKry1as+W5sfDqUD4+tXMAGYvWER7qA9LXjWytbFwDqqfVCN0O++mBvzi8GR5yRODAuohvOvHxepYxdEH5zX/nLaR0OIvSZ0IUHawKx9PK29vKZyyWPQ5Stm9/hwXeQsnf4ewK1jnLSd93GePpjC3y7/9l2Xu/NgV8t4LfOrod9VsdcjHqkfcwGt824cd1D5YbswRw2rzG92Gzm4s/94IsPgRHpd6LGfDXVXHKxNqLE5Sje3EYbIX62bpgWGU8uvs0JjexykXuRRrFELXPj5gF+fLncKFB9OfenH24/tfYmEw/m8pD6oXv169/A4jl44jwd3DD12iuQ/J4WRnHqstcHVKMb3E1ZLJ5Dk6/DRzoo6dD+sBmbq01fTnYSly7WmtQG80ac1lCs3vBJdjCn52u91TGqsfNiIZ96QCdq2Ov2pzh6PcddPS7Zfqpdn4TN+LX7Gx8KV4QOJQWbuBtwA1ey9JoJFSu3PHJCNpx0qMltGKrVjU74qpt/baBe9gRstrrVxiPFigF12BIcvRG8Lia+XM3FsTlkfdZqTf5vmYPmc1gHAV+8VzSHgqiHz6/W9uyA9PQx3wOa3kET29qKp7O3LnXS+VsfVDud5G9MghztXfNGtZZvz9jkWukagzzZ67McxWYzD+xsxvagtRZzg5/Ua33gJ9WmAz2kP57P5/dJBhpoRFKAv8by0UtCrwjE46cncuE1DxYQt3l6cYCzOV0UowvfjcffBjRfWzxrUCd7vLj5bCzp0PgpGL++HRzQC59xX5noDhOePJ5oXh29Ejp4DoP/N9aB0Z8+9ah2+yF3vtZhVGf9dLZ8hL21AK680FqN/PRy3j8s2ICOA9VojlNOoHeAoBqEXVxzfe4a6ttaQnX4Qv1sHjno2aHYcseH+m4k+cthrDdjcdniEDj3wev1Or9WFZHUvIBdCFhwPP5QgQ7nxsYzb6PF4+FrxBiv/OWhFwdsxMaLlRdHjsDfusSmG9OtBYpjx+UTL295SFh/vXcjNOaP43cW+0zVr0p5ujl4DpjfYfQbHV4PoVykG73eEmgENYO6QY72V476E6uPer2xufmLLW7Bpg4evXzqVoOIB3po/8VVU61yhVsvTt1i1WIvtjp0turHh9bSiEevh7XFkZe+OUj1jHx6O39BeG9UUuJf2M0JFf5VdHHP45Zz/fWS7zT78bdYdrqNCNv3xuIX0xzM01u/fPED+84X1b9jwJOpnL5Z7MsPh82e9yQDX4A4aA6cJ5tY+fQoftfZ2kF+aC9+9RrfSBbVcGNubDGErTr0mxu2TpziIDsUaxQDy69mvlCNuKRca2dTy30T+ImDtnWhHNXdvPfcSPQS+M1JPvnf7/ffP1ItpwPOCYuYAAAAAElFTkSuQmCC;" parent="1" vertex="1">
          <mxGeometry x="3030" y="509.5" width="117" height="117" as="geometry" />
        </mxCell>
        <mxCell id="lP7gqWI9JIaagOP97WaU-216" value="Decoder" style="text;html=1;strokeColor=none;fillColor=none;align=center;verticalAlign=middle;whiteSpace=wrap;rounded=0;shadow=0;fontStyle=1;rotation=0;fontSize=25;" parent="1" vertex="1">
          <mxGeometry x="2429.63" y="312.25000000000045" width="40" height="20" as="geometry" />
        </mxCell>
        <mxCell id="lP7gqWI9JIaagOP97WaU-217" value="Output" style="text;html=1;strokeColor=none;fillColor=none;align=center;verticalAlign=middle;whiteSpace=wrap;rounded=0;shadow=0;rotation=0;fontSize=25;" parent="1" vertex="1">
          <mxGeometry x="3010" y="635.5" width="157" height="20" as="geometry" />
        </mxCell>
        <mxCell id="lP7gqWI9JIaagOP97WaU-218" value="" style="shape=cube;whiteSpace=wrap;html=1;boundedLbl=1;backgroundOutline=1;darkOpacity=0.05;darkOpacity2=0.1;fillColor=#dae8fc;strokeColor=#6c8ebf;shadow=0;flipH=1;rotation=0;fontSize=12;perimeterSpacing=0;" parent="1" vertex="1">
          <mxGeometry x="1988" y="388.71000000000004" width="129.83" height="400" as="geometry" />
        </mxCell>
        <mxCell id="lP7gqWI9JIaagOP97WaU-219" value="256" style="text;html=1;strokeColor=none;fillColor=none;align=center;verticalAlign=middle;whiteSpace=wrap;rounded=0;shadow=0;rotation=0;fontSize=25;" parent="1" vertex="1">
          <mxGeometry x="1949.7600000000002" y="377.0799999999999" width="40" height="20" as="geometry" />
        </mxCell>
        <mxCell id="lP7gqWI9JIaagOP97WaU-220" value="64" style="text;html=1;strokeColor=none;fillColor=none;align=center;verticalAlign=middle;whiteSpace=wrap;rounded=0;shadow=0;rotation=0;fontSize=25;" parent="1" vertex="1">
          <mxGeometry x="2028" y="804" width="40" height="20" as="geometry" />
        </mxCell>
        <mxCell id="lP7gqWI9JIaagOP97WaU-221" value="256" style="text;html=1;strokeColor=none;fillColor=none;align=center;verticalAlign=middle;whiteSpace=wrap;rounded=0;shadow=0;rotation=0;fontSize=25;" parent="1" vertex="1">
          <mxGeometry x="1932" y="579.21" width="50" height="20" as="geometry" />
        </mxCell>
        <mxCell id="lP7gqWI9JIaagOP97WaU-222" value="" style="endArrow=none;html=1;" parent="1" edge="1">
          <mxGeometry width="50" height="50" relative="1" as="geometry">
            <mxPoint x="2164.83" y="570.9300000000001" as="sourcePoint" />
            <mxPoint x="2117.83" y="570.9300000000001" as="targetPoint" />
          </mxGeometry>
        </mxCell>
        <mxCell id="lP7gqWI9JIaagOP97WaU-223" value="" style="endArrow=classic;html=1;exitX=0.486;exitY=1.009;exitDx=0;exitDy=0;exitPerimeter=0;" parent="1" edge="1">
          <mxGeometry width="50" height="50" relative="1" as="geometry">
            <mxPoint x="2280" y="570.9325120000003" as="sourcePoint" />
            <mxPoint x="2330" y="570.71" as="targetPoint" />
            <Array as="points" />
          </mxGeometry>
        </mxCell>
        <mxCell id="lP7gqWI9JIaagOP97WaU-224" value="" style="shape=cube;whiteSpace=wrap;html=1;boundedLbl=1;backgroundOutline=1;darkOpacity=0.05;darkOpacity2=0.1;fillColor=#dae8fc;strokeColor=#6c8ebf;shadow=0;flipH=1;rotation=0;fontSize=12;perimeterSpacing=0;" parent="1" vertex="1">
          <mxGeometry x="2386" y="388.71000000000004" width="91.91" height="400" as="geometry" />
        </mxCell>
        <mxCell id="lP7gqWI9JIaagOP97WaU-225" value="256" style="text;html=1;strokeColor=none;fillColor=none;align=center;verticalAlign=middle;whiteSpace=wrap;rounded=0;shadow=0;rotation=0;fontSize=25;" parent="1" vertex="1">
          <mxGeometry x="2350" y="377.0825120000004" width="40" height="20" as="geometry" />
        </mxCell>
        <mxCell id="lP7gqWI9JIaagOP97WaU-226" value="32" style="text;html=1;strokeColor=none;fillColor=none;align=center;verticalAlign=middle;whiteSpace=wrap;rounded=0;shadow=0;rotation=0;fontSize=25;" parent="1" vertex="1">
          <mxGeometry x="2400" y="804.0025120000005" width="40" height="20" as="geometry" />
        </mxCell>
        <mxCell id="lP7gqWI9JIaagOP97WaU-227" value="256" style="text;html=1;strokeColor=none;fillColor=none;align=center;verticalAlign=middle;whiteSpace=wrap;rounded=0;shadow=0;rotation=0;fontSize=25;" parent="1" vertex="1">
          <mxGeometry x="2338" y="560.2525120000005" width="40" height="20" as="geometry" />
        </mxCell>
        <mxCell id="lP7gqWI9JIaagOP97WaU-228" value="" style="endArrow=none;html=1;entryX=-0.002;entryY=0.508;entryDx=0;entryDy=0;entryPerimeter=0;" parent="1" edge="1">
          <mxGeometry width="50" height="50" relative="1" as="geometry">
            <mxPoint x="2529.8199999999997" y="570.0900000000001" as="sourcePoint" />
            <mxPoint x="2477.9096600000003" y="569.9100000000003" as="targetPoint" />
          </mxGeometry>
        </mxCell>
        <mxCell id="lP7gqWI9JIaagOP97WaU-229" value="" style="shape=cube;whiteSpace=wrap;html=1;boundedLbl=1;backgroundOutline=1;darkOpacity=0.05;darkOpacity2=0.1;fillColor=#dae8fc;strokeColor=#6c8ebf;shadow=0;flipH=1;rotation=0;fontSize=12;perimeterSpacing=0;" parent="1" vertex="1">
          <mxGeometry x="2752" y="388.71000000000004" width="42.95" height="400" as="geometry" />
        </mxCell>
        <mxCell id="lP7gqWI9JIaagOP97WaU-230" value="256" style="text;html=1;strokeColor=none;fillColor=none;align=center;verticalAlign=middle;whiteSpace=wrap;rounded=0;shadow=0;rotation=0;fontSize=25;" parent="1" vertex="1">
          <mxGeometry x="2712" y="377.0799999999999" width="40" height="20" as="geometry" />
        </mxCell>
        <mxCell id="lP7gqWI9JIaagOP97WaU-231" value="16" style="text;html=1;strokeColor=none;fillColor=none;align=center;verticalAlign=middle;whiteSpace=wrap;rounded=0;shadow=0;rotation=0;fontSize=25;" parent="1" vertex="1">
          <mxGeometry x="2742" y="802" width="40" height="20" as="geometry" />
        </mxCell>
        <mxCell id="lP7gqWI9JIaagOP97WaU-232" value="256" style="text;html=1;strokeColor=none;fillColor=none;align=center;verticalAlign=middle;whiteSpace=wrap;rounded=0;shadow=0;rotation=0;fontSize=25;" parent="1" vertex="1">
          <mxGeometry x="2705" y="560.25" width="40" height="20" as="geometry" />
        </mxCell>
        <mxCell id="lP7gqWI9JIaagOP97WaU-233" value="" style="endArrow=classic;html=1;exitX=0.486;exitY=1.009;exitDx=0;exitDy=0;exitPerimeter=0;" parent="1" edge="1">
          <mxGeometry width="50" height="50" relative="1" as="geometry">
            <mxPoint x="2632" y="571.0125120000002" as="sourcePoint" />
            <mxPoint x="2690" y="570.71" as="targetPoint" />
          </mxGeometry>
        </mxCell>
        <mxCell id="lP7gqWI9JIaagOP97WaU-234" value="" style="group" parent="1" vertex="1" connectable="0">
          <mxGeometry x="2852" y="525.25" width="92" height="97.92" as="geometry" />
        </mxCell>
        <mxCell id="lP7gqWI9JIaagOP97WaU-235" value="" style="group" parent="lP7gqWI9JIaagOP97WaU-234" vertex="1" connectable="0">
          <mxGeometry width="92" height="97.92" as="geometry" />
        </mxCell>
        <mxCell id="lP7gqWI9JIaagOP97WaU-236" value="" style="verticalLabelPosition=bottom;verticalAlign=top;html=1;shape=mxgraph.basic.layered_rect;dx=10;outlineConnect=0;shadow=0;flipH=1;flipV=1;fillColor=#dae8fc;strokeColor=#6c8ebf;" parent="lP7gqWI9JIaagOP97WaU-235" vertex="1">
          <mxGeometry x="11.5" width="68.99999999999997" height="58.752" as="geometry" />
        </mxCell>
        <mxCell id="lP7gqWI9JIaagOP97WaU-237" value="3x3x16x1" style="text;html=1;strokeColor=none;fillColor=none;align=center;verticalAlign=middle;whiteSpace=wrap;rounded=0;shadow=0;fontSize=21;" parent="lP7gqWI9JIaagOP97WaU-235" vertex="1">
          <mxGeometry y="58.752" width="92" height="39.168" as="geometry" />
        </mxCell>
        <mxCell id="lP7gqWI9JIaagOP97WaU-238" value="" style="group" parent="1" vertex="1" connectable="0">
          <mxGeometry x="2540" y="525.25" width="92" height="97.92" as="geometry" />
        </mxCell>
        <mxCell id="lP7gqWI9JIaagOP97WaU-239" value="" style="group" parent="lP7gqWI9JIaagOP97WaU-238" vertex="1" connectable="0">
          <mxGeometry width="92" height="97.92" as="geometry" />
        </mxCell>
        <mxCell id="lP7gqWI9JIaagOP97WaU-240" value="" style="verticalLabelPosition=bottom;verticalAlign=top;html=1;shape=mxgraph.basic.layered_rect;dx=10;outlineConnect=0;shadow=0;flipH=1;flipV=1;fillColor=#dae8fc;strokeColor=#6c8ebf;" parent="lP7gqWI9JIaagOP97WaU-239" vertex="1">
          <mxGeometry x="11.5" width="68.99999999999997" height="58.752" as="geometry" />
        </mxCell>
        <mxCell id="lP7gqWI9JIaagOP97WaU-241" value="3x3x32x16" style="text;html=1;strokeColor=none;fillColor=none;align=center;verticalAlign=middle;whiteSpace=wrap;rounded=0;shadow=0;fontSize=21;" parent="lP7gqWI9JIaagOP97WaU-239" vertex="1">
          <mxGeometry y="58.752" width="92" height="39.168" as="geometry" />
        </mxCell>
        <mxCell id="lP7gqWI9JIaagOP97WaU-242" value="" style="endArrow=none;html=1;entryX=-0.002;entryY=0.508;entryDx=0;entryDy=0;entryPerimeter=0;" parent="1" edge="1">
          <mxGeometry width="50" height="50" relative="1" as="geometry">
            <mxPoint x="2846.8600000000006" y="571.6800000000003" as="sourcePoint" />
            <mxPoint x="2794.94966" y="571.5" as="targetPoint" />
          </mxGeometry>
        </mxCell>
        <mxCell id="lP7gqWI9JIaagOP97WaU-243" value="" style="endArrow=classic;html=1;exitX=0.486;exitY=1.009;exitDx=0;exitDy=0;exitPerimeter=0;" parent="1" edge="1">
          <mxGeometry width="50" height="50" relative="1" as="geometry">
            <mxPoint x="2952" y="572.2625120000002" as="sourcePoint" />
            <mxPoint x="3010" y="571.5" as="targetPoint" />
          </mxGeometry>
        </mxCell>
        <mxCell id="lP7gqWI9JIaagOP97WaU-244" value="" style="endArrow=classic;html=1;exitX=1;exitY=0.5;exitDx=0;exitDy=0;entryX=-0.024;entryY=0.443;entryDx=0;entryDy=0;entryPerimeter=0;" parent="1" target="lP7gqWI9JIaagOP97WaU-221" edge="1">
          <mxGeometry width="50" height="50" relative="1" as="geometry">
            <mxPoint x="1870.0500000000002" y="588.5" as="sourcePoint" />
            <mxPoint x="1920" y="412.0799999999999" as="targetPoint" />
          </mxGeometry>
        </mxCell>
        <mxCell id="lP7gqWI9JIaagOP97WaU-248" value="Filter Size = 32" style="text;html=1;strokeColor=none;fillColor=none;align=center;verticalAlign=middle;whiteSpace=wrap;rounded=0;shadow=0;fontSize=17;" parent="1" vertex="1">
          <mxGeometry x="496.4" y="559.1800000000001" width="130" height="40.03" as="geometry" />
        </mxCell>
        <mxCell id="lP7gqWI9JIaagOP97WaU-252" value="" style="endArrow=classic;html=1;entryX=0.597;entryY=0.011;entryDx=0;entryDy=0;entryPerimeter=0;" parent="1" source="9eV0g2RjngN2opoSOIV_-6" edge="1">
          <mxGeometry width="50" height="50" relative="1" as="geometry">
            <mxPoint x="920" y="515" as="sourcePoint" />
            <mxPoint x="975.98" y="515.4900000000004" as="targetPoint" />
          </mxGeometry>
        </mxCell>
        <mxCell id="lP7gqWI9JIaagOP97WaU-258" value="" style="endArrow=none;html=1;" parent="1" edge="1">
          <mxGeometry width="50" height="50" relative="1" as="geometry">
            <mxPoint x="1071.79" y="520.8900000000003" as="sourcePoint" />
            <mxPoint x="1141.79" y="520.8100000000004" as="targetPoint" />
          </mxGeometry>
        </mxCell>
        <mxCell id="lP7gqWI9JIaagOP97WaU-259" value="" style="endArrow=classic;html=1;entryX=0.597;entryY=0.011;entryDx=0;entryDy=0;entryPerimeter=0;" parent="1" edge="1">
          <mxGeometry width="50" height="50" relative="1" as="geometry">
            <mxPoint x="1240.79" y="519.8900000000003" as="sourcePoint" />
            <mxPoint x="1303.79" y="519.8900000000003" as="targetPoint" />
          </mxGeometry>
        </mxCell>
        <mxCell id="lP7gqWI9JIaagOP97WaU-265" value="" style="endArrow=none;html=1;" parent="1" edge="1">
          <mxGeometry width="50" height="50" relative="1" as="geometry">
            <mxPoint x="1391.79" y="519.8899999999999" as="sourcePoint" />
            <mxPoint x="1461.79" y="519.8100000000009" as="targetPoint" />
          </mxGeometry>
        </mxCell>
        <mxCell id="lP7gqWI9JIaagOP97WaU-266" value="" style="endArrow=classic;html=1;entryX=0.597;entryY=0.011;entryDx=0;entryDy=0;entryPerimeter=0;" parent="1" edge="1">
          <mxGeometry width="50" height="50" relative="1" as="geometry">
            <mxPoint x="1560.79" y="519.8899999999999" as="sourcePoint" />
            <mxPoint x="1623.79" y="519.8899999999999" as="targetPoint" />
          </mxGeometry>
        </mxCell>
        <mxCell id="lP7gqWI9JIaagOP97WaU-267" value="" style="verticalLabelPosition=bottom;verticalAlign=top;html=1;shape=mxgraph.basic.layered_rect;dx=10;outlineConnect=0;shadow=0;flipH=1;flipV=1;fillColor=#dae8fc;strokeColor=#6c8ebf;" parent="1" vertex="1">
          <mxGeometry x="1493" y="488.42999999999984" width="48.75" height="52.54" as="geometry" />
        </mxCell>
        <mxCell id="lP7gqWI9JIaagOP97WaU-268" value="3x3x48x16" style="text;html=1;strokeColor=none;fillColor=none;align=center;verticalAlign=middle;whiteSpace=wrap;rounded=0;shadow=0;fontSize=17;" parent="1" vertex="1">
          <mxGeometry x="1478.9899999999998" y="540.9695999999999" width="80.06" height="40.032" as="geometry" />
        </mxCell>
        <mxCell id="lP7gqWI9JIaagOP97WaU-269" value="LSTM Encoder" style="text;html=1;strokeColor=none;fillColor=none;align=center;verticalAlign=middle;whiteSpace=wrap;rounded=0;shadow=0;fontStyle=1;rotation=0;direction=east;fontSize=23;" parent="1" vertex="1">
          <mxGeometry x="1090" y="357.08" width="280" height="20" as="geometry" />
        </mxCell>
        <mxCell id="9eV0g2RjngN2opoSOIV_-3" value="Bi-LSTM" style="whiteSpace=wrap;html=1;aspect=fixed;fillColor=#dae8fc;strokeColor=#6c8ebf;" parent="1" vertex="1">
          <mxGeometry x="521.4" y="475.7" width="80" height="80" as="geometry" />
        </mxCell>
        <mxCell id="9eV0g2RjngN2opoSOIV_-6" value="Flatten" style="whiteSpace=wrap;html=1;aspect=fixed;fillColor=#dae8fc;strokeColor=#6c8ebf;" parent="1" vertex="1">
          <mxGeometry x="832.98" y="475.7" width="80" height="80" as="geometry" />
        </mxCell>
        <mxCell id="9eV0g2RjngN2opoSOIV_-9" value="Batch Normalization" style="whiteSpace=wrap;html=1;aspect=fixed;fillColor=#dae8fc;strokeColor=#6c8ebf;" parent="1" vertex="1">
          <mxGeometry x="1150" y="480.25" width="80" height="80" as="geometry" />
        </mxCell>
        <mxCell id="9eV0g2RjngN2opoSOIV_-10" value="" style="group;direction=east;rotation=0;" parent="1" vertex="1" connectable="0">
          <mxGeometry x="1300" y="450.00000000000006" width="120.47" height="142" as="geometry" />
        </mxCell>
        <mxCell id="9eV0g2RjngN2opoSOIV_-11" value="163840" style="text;html=1;strokeColor=none;fillColor=none;align=center;verticalAlign=middle;whiteSpace=wrap;rounded=0;shadow=0;rotation=0;fontSize=16;direction=east;" parent="9eV0g2RjngN2opoSOIV_-10" vertex="1">
          <mxGeometry x="30" y="124" width="40" height="20" as="geometry" />
        </mxCell>
        <mxCell id="9eV0g2RjngN2opoSOIV_-12" value="" style="rounded=0;whiteSpace=wrap;html=1;fillColor=#d5e8d4;strokeColor=#82b366;" parent="9eV0g2RjngN2opoSOIV_-10" vertex="1">
          <mxGeometry x="45" y="-10" width="10" height="130" as="geometry" />
        </mxCell>
      </root>
    </mxGraphModel>
  </diagram>
</mxfile>
